<?xml version="1.0" encoding="UTF-8" standalone="no"?>
<svg
   xmlns:dc="http://purl.org/dc/elements/1.1/"
   xmlns:cc="http://creativecommons.org/ns#"
   xmlns:rdf="http://www.w3.org/1999/02/22-rdf-syntax-ns#"
   xmlns:svg="http://www.w3.org/2000/svg"
   xmlns="http://www.w3.org/2000/svg"
   xmlns:sodipodi="http://sodipodi.sourceforge.net/DTD/sodipodi-0.dtd"
   xmlns:inkscape="http://www.inkscape.org/namespaces/inkscape"
   id="svg8"
   version="1.1"
   viewBox="0 0 35.702123 10.591845"
   height="40.032173"
   width="134.93715"
   sodipodi:docname="fox-text-densed-white.svg"
   inkscape:version="0.92.2 5c3e80d, 2017-08-06">
  <sodipodi:namedview
     pagecolor="#ffffff"
     bordercolor="#666666"
     borderopacity="1"
     objecttolerance="10"
     gridtolerance="10"
     guidetolerance="10"
     inkscape:pageopacity="0"
     inkscape:pageshadow="2"
     inkscape:window-width="1440"
     inkscape:window-height="855"
     id="namedview40"
     showgrid="false"
     fit-margin-top="0"
     fit-margin-left="0"
     fit-margin-right="0"
     fit-margin-bottom="0"
     units="px"
     inkscape:zoom="3.6783498"
     inkscape:cx="138.92099"
     inkscape:cy="20.016073"
     inkscape:window-x="0"
     inkscape:window-y="1"
     inkscape:window-maximized="1"
     inkscape:current-layer="g90"
     showguides="true" />
  <defs
     id="defs2">
    <clipPath
       id="a">
      <path
         d="m -173.828,1455.5 h 800 v -800 h -800 z"
         id="path81"
         inkscape:connector-curvature="0" />
    </clipPath>
  </defs>
  <metadata
     id="metadata5">
    <rdf:RDF>
      <cc:Work
         rdf:about="">
        <dc:format>image/svg+xml</dc:format>
        <dc:type
           rdf:resource="http://purl.org/dc/dcmitype/StillImage" />
        <dc:title></dc:title>
      </cc:Work>
    </rdf:RDF>
  </metadata>
  <g
     id="layer1"
     transform="translate(-2.5611496,-4.4421066)">
    <g
       transform="matrix(0.26458333,0,0,0.26458333,2.5611496,4.4422442)"
       class="layer"
       id="g90">
      <path
         style="fill:#ffffff"
         d="m 51.46875,0 a 3.9999998,3.9999998 0 0 0 -4,4 v 32 a 3.9999998,3.9999998 0 0 0 4,4 h 32 a 3.9999998,3.9999998 0 0 0 4,-4 V 4 a 3.9999998,3.9999998 0 0 0 -4,-4 z m 4,8 h 24 v 24 h -24 z"
         transform="translate(0,-5.2e-4)"
         id="path62"
         inkscape:connector-curvature="0" />
      <path
         style="opacity:1;vector-effect:none;fill:#ffffff;fill-opacity:1;stroke-width:1;stroke-linecap:butt;stroke-linejoin:miter;stroke-miterlimit:4;stroke-dasharray:none;stroke-dashoffset:0;stroke-opacity:1"
         d="m 133.766,1.172 a 4,4 0 0 0 -5.657,0 L 114.937,14.344 101.766,1.172 A 4,4 0 0 0 96.109,6.828 L 109.28,20 96.108,33.172 a 4,4 0 1 0 5.657,5.656 l 13.17,-13.172 13.173,13.172 a 3.982,3.982 0 0 0 2.828,1.172 4,4 0 0 0 2.829,-6.828 L 120.594,20 133.766,6.828 a 4,4 0 0 0 0,-5.656"
         id="path113"
         inkscape:connector-curvature="0" />
      <path
         style="fill:#ffffff"
         d="M 36,8 A 4,4 0 0 0 36,0 H 4 A 4,4 0 0 0 0,4 v 32 a 4,4 0 0 0 8,0 V 24 h 28 a 4,4 0 0 0 0,-8 H 8 V 8 Z"
         id="path111"
         inkscape:connector-curvature="0" />
    </g>
  </g>
</svg>
