<svg xmlns="http://www.w3.org/2000/svg" viewBox="0 0 640 640" width="640" height="640">
	<style>
		tspan { white-space:pre }
		.shp0 { fill: #000000 } 
		.shp1 { fill: #ffffff } 
	</style>
	<g id="Layer copy">
		<g id="g10">
			<g id="g12">
				<g id="g28">
					<path id="path30" class="shp0" d="M319.53 556L437.94 143.05C441.11 132.01 451.61 124 462.92 124L566.17 124L447.76 536.95C444.59 547.99 434.09 556 422.78 556L319.53 556L319.53 556Z" />
				</g>
				<g id="g48">
					<path id="path50" class="shp0" d="M113.83 556L232.24 143.05C235.41 132.01 245.91 124 257.22 124L360.47 124L242.06 536.95C238.89 547.99 228.39 556 217.08 556L113.83 556L113.83 556Z" />
				</g>
			</g>
		</g>
	</g>
	<g id="Layer">
		<g id="g10">
			<g id="g12">
				<g id="g28">
					<path id="path30" class="shp1" d="M299.53 536L417.94 123.05C421.11 112.01 431.61 104 442.92 104L546.17 104L427.76 516.95C424.59 527.99 414.09 536 402.78 536L299.53 536L299.53 536Z" />
				</g>
				<g id="g48">
					<path id="path50" class="shp1" d="M93.83 536L212.24 123.05C215.41 112.01 225.91 104 237.22 104L340.47 104L222.06 516.95C218.89 527.99 208.39 536 197.08 536L93.83 536L93.83 536Z" />
				</g>
			</g>
		</g>
	</g>
</svg>