<?xml version="1.0" encoding="UTF-8"?>
<svg width="1027px" height="126px" viewBox="0 0 1027 126" version="1.1" xmlns="http://www.w3.org/2000/svg" xmlns:xlink="http://www.w3.org/1999/xlink">
    <!-- Generator: Sketch 55.2 (78181) - https://sketchapp.com -->
    <title>Untitled 3</title>
    <desc>Created with Sketch.</desc>
    <g id="Page-1" stroke="none" stroke-width="1" fill="none" fill-rule="evenodd">
        <g id="Group-2" transform="translate(152.000000, 0.000000)" fill="#000000" fill-rule="nonzero">
            <path d="M162.341463,125.122165 C159.029491,125.122165 155.853169,123.806489 153.511252,121.464572 C151.169334,119.122654 149.853659,115.946332 149.853659,112.63436 L149.853659,12.7319265 C149.853659,9.41995486 151.169334,6.24363294 153.511252,3.90171534 C155.853169,1.55979774 159.029491,0.244122248 162.341463,0.244122248 L262.243903,0.244122248 C265.555875,0.244122248 268.732197,1.55979774 271.074114,3.90171534 C273.416032,6.24363294 274.731707,9.41995486 274.731707,12.7319265 L274.731707,112.63436 C274.731707,115.946332 273.416032,119.122654 271.074114,121.464572 C268.732197,123.806489 265.555875,125.122165 262.243903,125.122165 L162.341463,125.122165 Z M174.829267,100.146556 L249.756099,100.146556 L249.756099,25.2197307 L174.829267,25.2197307 L174.829267,100.146556 Z" id="path115" transform="translate(212.292680, 62.683143) scale(-1, 1) rotate(-180.000000) translate(-212.292680, -62.683143) "></path>
            <path d="M420.932064,121.466875 C418.592023,123.807037 415.418174,125.121736 412.10877,125.121736 C408.799367,125.121736 405.625517,123.807037 403.285476,121.466875 L362.196408,80.3778068 L321.11046,121.466875 C316.222755,126.247234 308.398365,126.204143 303.563608,121.370241 C298.728851,116.536339 298.684377,108.711956 303.463872,103.823406 L344.54982,62.7343383 L303.460752,21.6452704 C300.249983,18.5050168 298.97452,13.8815412 300.121103,9.53923965 C301.267686,5.19693813 304.659396,1.80582732 309.0019,0.660012272 C313.344404,-0.48580278 317.967655,0.790477039 321.10734,4.00180184 L362.190169,45.0908697 L403.282357,4.00180184 C405.61832,1.65636358 408.793838,0.340342609 412.104091,0.34583558 C417.15059,0.345651613 421.700342,3.38527061 423.63199,8.04744639 C425.563639,12.7096222 424.496819,18.0763182 420.928945,21.6452704 L379.842996,62.7343383 L420.932064,103.823406 C425.803133,108.695946 425.803133,116.594334 420.932064,121.466875" id="path113" transform="translate(362.146341, 62.684263) scale(-1, 1) rotate(-180.000000) translate(-362.146341, -62.684263) "></path>
            <path d="M112.390238,99.902434 C119.287062,99.902434 124.878042,105.493414 124.878042,112.390238 C124.878042,119.287062 119.287062,124.878042 112.390238,124.878042 L12.4878042,124.878042 C5.5909804,124.878042 2.84217094e-14,119.287062 2.84217094e-14,112.390238 L2.84217094e-14,12.4878042 C2.84217094e-14,5.5909804 5.5909804,2.84217094e-14 12.4878042,2.84217094e-14 C19.3846281,2.84217094e-14 24.9756085,5.5909804 24.9756085,12.4878042 L24.9756085,49.951217 L112.390238,49.951217 C119.287062,49.951217 124.878042,55.5421974 124.878042,62.4390212 C124.878042,69.3358451 119.287062,74.9268255 112.390238,74.9268255 L24.9756085,74.9268255 L24.9756085,99.902434 L112.390238,99.902434 Z" id="path111" transform="translate(62.439021, 62.439021) scale(-1, 1) rotate(-180.000000) translate(-62.439021, -62.439021) "></path>
            <path d="M611.902438,125.122165 C605.005615,125.122165 599.414634,119.531184 599.414634,112.63436 L599.414634,12.7319265 C599.414634,5.83510265 605.005615,0.244122248 611.902438,0.244122248 L711.804904,0.244122248 C718.701727,0.244122248 724.292708,5.83510265 724.292708,12.7319265 L724.292708,112.63436 C724.292708,119.531184 718.701727,125.122165 711.804904,125.122165 L611.902438,125.122165 Z M624.390243,100.146556 L699.317099,100.146556 L699.317099,25.2197307 L624.390243,25.2197307 L624.390243,100.146556 Z" id="path115-8" transform="translate(661.853671, 62.683143) scale(-1, 1) rotate(-180.000000) translate(-661.853671, -62.683143) "></path>
            <path d="M870.493041,121.46722 C868.153001,123.807439 864.979153,125.122171 861.669751,125.122171 C858.360349,125.122171 855.186501,123.807439 852.846461,121.46722 L811.75741,80.3771377 L770.671447,121.46722 C765.783741,126.247678 757.959369,126.204578 753.124621,121.370564 C748.289874,116.53655 748.245392,108.711989 753.024866,103.823316 L794.110798,62.7332337 L753.021747,21.6431517 C749.810966,18.502823 748.535495,13.8792274 749.682076,9.5368113 C750.828657,5.19439522 754.220372,1.80319502 758.562881,0.657353195 C762.905391,-0.488488628 767.528645,0.787831721 770.668327,3.99924763 L811.751171,45.0893296 L852.843341,3.99924763 C855.179303,1.65375151 858.35482,0.337698059 861.665072,0.343191132 C866.711568,0.343007464 871.261319,3.38270151 873.192966,8.04499222 C875.124614,12.7072829 874.057795,18.0741113 870.489922,21.6431517 L829.40399,62.7332337 L870.493041,103.823316 C875.364108,108.695976 875.364108,116.594559 870.493041,121.46722" id="path113-0" transform="translate(811.707317, 62.683147) scale(-1, 1) rotate(-180.000000) translate(-811.707317, -62.683147) "></path>
            <path d="M561.951214,100.143764 C568.846947,100.145306 574.436226,105.735835 574.436226,112.631568 C574.436226,119.527302 568.846947,125.117831 561.951214,125.119373 L462.04878,125.119373 C455.151956,125.119373 449.560976,119.528392 449.560976,112.631568 L449.560976,12.7291344 C449.562518,5.83340106 455.153046,0.244122248 462.04878,0.244122248 C468.944513,0.244122248 474.535042,5.83340106 474.536584,12.7291344 L474.536584,50.1925472 L561.951214,50.1925472 C568.846947,50.1940891 574.436226,55.7846179 574.436226,62.6803514 C574.436226,69.576085 568.846947,75.1666137 561.951214,75.1681557 L474.536584,75.1681557 L474.536584,100.143764 L561.951214,100.143764 Z" id="path111-2" transform="translate(511.998601, 62.681747) scale(-1, 1) rotate(-180.000000) translate(-511.998601, -62.681747) "></path>
        </g>
        <g id="Group" fill="#000000" fill-rule="nonzero">
            <path d="M58.2078313,-2.84217094e-14 L91.7155204,116.853871 C92.6108396,119.976735 95.5828806,122.24333 98.78243,122.24333 L128.000001,122.24333 L94.4923116,5.38974239 C93.5967094,2.26687805 90.6246685,-2.84217094e-14 87.4251191,-2.84217094e-14 L58.2078313,-2.84217094e-14 Z" id="path30" transform="translate(93.103916, 61.121665) scale(-1, 1) rotate(-180.000000) translate(-93.103916, -61.121665) "></path>
            <path d="M0,2.84217094e-14 L33.5076892,116.853871 C34.4027254,119.976735 37.3747664,122.24333 40.5745987,122.24333 L69.7921695,122.24333 L36.2847633,5.38974239 C35.3891612,2.26687805 32.4168372,2.84217094e-14 29.2175708,2.84217094e-14 L0,2.84217094e-14 Z" id="path50" transform="translate(34.896085, 61.121665) scale(-1, 1) rotate(-180.000000) translate(-34.896085, -61.121665) "></path>
        </g>
    </g>
</svg>