<?xml version="1.0" encoding="UTF-8"?>
<svg width="346px" height="128px" viewBox="0 0 346 128" version="1.1" xmlns="http://www.w3.org/2000/svg" xmlns:xlink="http://www.w3.org/1999/xlink">
    <!-- Generator: Sketch 55.2 (78181) - https://sketchapp.com -->
    <title>foxfox-2line-white</title>
    <desc>Created with Sketch.</desc>
    <g id="foxfox-2line-white" stroke="none" stroke-width="1" fill="none" fill-rule="evenodd">
        <g fill-rule="nonzero">
            <g id="foxfox-2line-white-b" transform="translate(4.000000, 4.000000)" fill="#000000">
                <g id="ff" transform="translate(150.000000, 0.000000)">
                    <g id="fox-copy">
                        <path d="M73.6,56 C72.1147876,56 70.6904057,55.4100017 69.640202,54.359798 C68.5899983,53.3095943 68,51.8852124 68,50.4 L68,5.6 C68,4.11478765 68.5899983,2.69040571 69.640202,1.64020198 C70.6904057,0.589998257 72.1147876,-2.84217094e-14 73.6,-2.84217094e-14 L118.400003,-2.84217094e-14 C119.885215,-2.84217094e-14 121.309597,0.589998257 122.359801,1.64020198 C123.410005,2.69040571 124,4.11478765 124,5.6 L124,50.4 C124,51.8852124 123.410005,53.3095943 122.359801,54.359798 C121.309597,55.4100017 119.885215,56 118.400003,56 L73.6,56 Z M79.2,44.8 L112.800003,44.8 L112.800003,11.2 L79.2,11.2 L79.2,44.8 Z" id="path115" transform="translate(96.000000, 28.000000) scale(-1, 1) rotate(-180.000000) translate(-96.000000, -28.000000) "></path>
                        <path d="M190.361723,54.3609825 C189.31236,55.4104249 187.889087,56 186.405027,56 C184.920966,56 183.497693,55.4104249 182.448331,54.3609825 L164.022452,35.9346459 L145.597972,54.3609825 C143.406142,56.5047279 139.897392,56.485404 137.729305,54.3176472 C135.561219,52.1498903 135.541275,48.6410563 137.68458,46.448793 L156.10906,28.0224564 L137.683181,9.5961198 C136.243352,8.18787736 135.671386,6.11448599 136.185557,4.16718678 C136.699728,2.21988757 138.220698,0.699148541 140.16804,0.185309339 C142.115381,-0.328529862 144.18862,0.243816087 145.596573,1.68393032 L164.019654,20.1102669 L182.446932,1.68393032 C183.494465,0.63212173 184.918487,0.0419539138 186.402928,0.0444172293 C188.665968,0.0443347295 190.706247,1.40744773 191.572471,3.49819412 C192.438694,5.58894051 191.960292,7.99562804 190.360324,9.5961198 L171.935844,28.0224564 L190.361723,46.448793 C192.546092,48.633877 192.546092,52.1758984 190.361723,54.3609825" id="path113" transform="translate(164.000000, 28.000000) scale(-1, 1) rotate(-180.000000) translate(-164.000000, -28.000000) "></path>
                        <path d="M50.4,44.8 C53.4927946,44.8 56,47.3072054 56,50.4 C56,53.4927946 53.4927946,56 50.4,56 L5.6,56 C2.5072054,56 0,53.4927946 0,50.4 L0,5.6 C0,2.5072054 2.5072054,-2.84217094e-14 5.6,-2.84217094e-14 C8.6927946,-2.84217094e-14 11.2,2.5072054 11.2,5.6 L11.2,22.4 L50.4,22.4 C53.4927946,22.4 56,24.9072054 56,28 C56,31.0927946 53.4927946,33.6 50.4,33.6 L11.2,33.6 L11.2,44.8 L50.4,44.8 Z" id="path111" transform="translate(28.000000, 28.000000) scale(-1, 1) rotate(-180.000000) translate(-28.000000, -28.000000) "></path>
                    </g>
                    <g id="fox-copy-2" transform="translate(0.000000, 68.000000)">
                        <path d="M73.6,56 C72.1147876,56 70.6904057,55.4100017 69.640202,54.359798 C68.5899983,53.3095943 68,51.8852124 68,50.4 L68,5.6 C68,4.11478765 68.5899983,2.69040571 69.640202,1.64020198 C70.6904057,0.589998257 72.1147876,0 73.6,0 L118.400003,0 C119.885215,0 121.309597,0.589998257 122.359801,1.64020198 C123.410005,2.69040571 124,4.11478765 124,5.6 L124,50.4 C124,51.8852124 123.410005,53.3095943 122.359801,54.359798 C121.309597,55.4100017 119.885215,56 118.400003,56 L73.6,56 Z M79.2,44.8 L112.800003,44.8 L112.800003,11.2 L79.2,11.2 L79.2,44.8 Z" id="path115" transform="translate(96.000000, 28.000000) scale(-1, 1) rotate(-180.000000) translate(-96.000000, -28.000000) "></path>
                        <path d="M190.361723,54.3609825 C189.31236,55.4104249 187.889087,56 186.405027,56 C184.920966,56 183.497693,55.4104249 182.448331,54.3609825 L164.022452,35.9346459 L145.597972,54.3609825 C143.406142,56.5047279 139.897392,56.485404 137.729305,54.3176472 C135.561219,52.1498903 135.541275,48.6410563 137.68458,46.448793 L156.10906,28.0224564 L137.683181,9.5961198 C136.243352,8.18787736 135.671386,6.11448599 136.185557,4.16718678 C136.699728,2.21988757 138.220698,0.699148541 140.16804,0.185309339 C142.115381,-0.328529862 144.18862,0.243816087 145.596573,1.68393032 L164.019654,20.1102669 L182.446932,1.68393032 C183.494465,0.63212173 184.918487,0.0419539138 186.402928,0.0444172293 C188.665968,0.0443347295 190.706247,1.40744773 191.572471,3.49819412 C192.438694,5.58894051 191.960292,7.99562804 190.360324,9.5961198 L171.935844,28.0224564 L190.361723,46.448793 C192.546092,48.633877 192.546092,52.1758984 190.361723,54.3609825" id="path113" transform="translate(164.000000, 28.000000) scale(-1, 1) rotate(-180.000000) translate(-164.000000, -28.000000) "></path>
                        <path d="M50.4,44.8 C53.4927946,44.8 56,47.3072054 56,50.4 C56,53.4927946 53.4927946,56 50.4,56 L5.6,56 C2.5072054,56 0,53.4927946 0,50.4 L0,5.6 C0,2.5072054 2.5072054,0 5.6,0 C8.6927946,0 11.2,2.5072054 11.2,5.6 L11.2,22.4 L50.4,22.4 C53.4927946,22.4 56,24.9072054 56,28 C56,31.0927946 53.4927946,33.6 50.4,33.6 L11.2,33.6 L11.2,44.8 L50.4,44.8 Z" id="path111" transform="translate(28.000000, 28.000000) scale(-1, 1) rotate(-180.000000) translate(-28.000000, -28.000000) "></path>
                    </g>
                </g>
                <g id="w">
                    <path d="M58.6810657,-2.84217094e-14 L92.461175,117.803902 C93.3637733,120.952156 96.3599772,123.237179 99.5855392,123.237179 L129.040651,123.237179 L95.2605418,5.43356143 C94.3576583,2.28530796 91.3614544,-2.84217094e-14 88.1358924,-2.84217094e-14 L58.6810657,-2.84217094e-14 Z" id="path30" transform="translate(93.860858, 61.618589) scale(-1, 1) rotate(-180.000000) translate(-93.860858, -61.618589) "></path>
                    <path d="M0,2.84217094e-14 L33.7801094,117.803902 C34.6824223,120.952156 37.6786262,123.237179 40.9044735,123.237179 L70.3595855,123.237179 L36.5797614,5.43356143 C35.6768779,2.28530796 32.6803887,2.84217094e-14 29.455112,2.84217094e-14 L0,2.84217094e-14 Z" id="path50" transform="translate(35.179793, 61.618589) scale(-1, 1) rotate(-180.000000) translate(-35.179793, -61.618589) "></path>
                </g>
            </g>
            <g fill="#FFFFFF">
                <g id="ff" transform="translate(150.000000, 0.000000)">
                    <g id="fox">
                        <path d="M73.6,56 C72.1147876,56 70.6904057,55.4100017 69.640202,54.359798 C68.5899983,53.3095943 68,51.8852124 68,50.4 L68,5.6 C68,4.11478765 68.5899983,2.69040571 69.640202,1.64020198 C70.6904057,0.589998257 72.1147876,-2.84217094e-14 73.6,-2.84217094e-14 L118.400003,-2.84217094e-14 C119.885215,-2.84217094e-14 121.309597,0.589998257 122.359801,1.64020198 C123.410005,2.69040571 124,4.11478765 124,5.6 L124,50.4 C124,51.8852124 123.410005,53.3095943 122.359801,54.359798 C121.309597,55.4100017 119.885215,56 118.400003,56 L73.6,56 Z M79.2,44.8 L112.800003,44.8 L112.800003,11.2 L79.2,11.2 L79.2,44.8 Z" id="path115" transform="translate(96.000000, 28.000000) scale(-1, 1) rotate(-180.000000) translate(-96.000000, -28.000000) "></path>
                        <path d="M190.361723,54.3609825 C189.31236,55.4104249 187.889087,56 186.405027,56 C184.920966,56 183.497693,55.4104249 182.448331,54.3609825 L164.022452,35.9346459 L145.597972,54.3609825 C143.406142,56.5047279 139.897392,56.485404 137.729305,54.3176472 C135.561219,52.1498903 135.541275,48.6410563 137.68458,46.448793 L156.10906,28.0224564 L137.683181,9.5961198 C136.243352,8.18787736 135.671386,6.11448599 136.185557,4.16718678 C136.699728,2.21988757 138.220698,0.699148541 140.16804,0.185309339 C142.115381,-0.328529862 144.18862,0.243816087 145.596573,1.68393032 L164.019654,20.1102669 L182.446932,1.68393032 C183.494465,0.63212173 184.918487,0.0419539138 186.402928,0.0444172293 C188.665968,0.0443347295 190.706247,1.40744773 191.572471,3.49819412 C192.438694,5.58894051 191.960292,7.99562804 190.360324,9.5961198 L171.935844,28.0224564 L190.361723,46.448793 C192.546092,48.633877 192.546092,52.1758984 190.361723,54.3609825" id="path113" transform="translate(164.000000, 28.000000) scale(-1, 1) rotate(-180.000000) translate(-164.000000, -28.000000) "></path>
                        <path d="M50.4,44.8 C53.4927946,44.8 56,47.3072054 56,50.4 C56,53.4927946 53.4927946,56 50.4,56 L5.6,56 C2.5072054,56 0,53.4927946 0,50.4 L0,5.6 C0,2.5072054 2.5072054,-2.84217094e-14 5.6,-2.84217094e-14 C8.6927946,-2.84217094e-14 11.2,2.5072054 11.2,5.6 L11.2,22.4 L50.4,22.4 C53.4927946,22.4 56,24.9072054 56,28 C56,31.0927946 53.4927946,33.6 50.4,33.6 L11.2,33.6 L11.2,44.8 L50.4,44.8 Z" id="path111" transform="translate(28.000000, 28.000000) scale(-1, 1) rotate(-180.000000) translate(-28.000000, -28.000000) "></path>
                    </g>
                    <g id="fox" transform="translate(0.000000, 68.000000)">
                        <path d="M73.6,56 C72.1147876,56 70.6904057,55.4100017 69.640202,54.359798 C68.5899983,53.3095943 68,51.8852124 68,50.4 L68,5.6 C68,4.11478765 68.5899983,2.69040571 69.640202,1.64020198 C70.6904057,0.589998257 72.1147876,0 73.6,0 L118.400003,0 C119.885215,0 121.309597,0.589998257 122.359801,1.64020198 C123.410005,2.69040571 124,4.11478765 124,5.6 L124,50.4 C124,51.8852124 123.410005,53.3095943 122.359801,54.359798 C121.309597,55.4100017 119.885215,56 118.400003,56 L73.6,56 Z M79.2,44.8 L112.800003,44.8 L112.800003,11.2 L79.2,11.2 L79.2,44.8 Z" id="path115" transform="translate(96.000000, 28.000000) scale(-1, 1) rotate(-180.000000) translate(-96.000000, -28.000000) "></path>
                        <path d="M190.361723,54.3609825 C189.31236,55.4104249 187.889087,56 186.405027,56 C184.920966,56 183.497693,55.4104249 182.448331,54.3609825 L164.022452,35.9346459 L145.597972,54.3609825 C143.406142,56.5047279 139.897392,56.485404 137.729305,54.3176472 C135.561219,52.1498903 135.541275,48.6410563 137.68458,46.448793 L156.10906,28.0224564 L137.683181,9.5961198 C136.243352,8.18787736 135.671386,6.11448599 136.185557,4.16718678 C136.699728,2.21988757 138.220698,0.699148541 140.16804,0.185309339 C142.115381,-0.328529862 144.18862,0.243816087 145.596573,1.68393032 L164.019654,20.1102669 L182.446932,1.68393032 C183.494465,0.63212173 184.918487,0.0419539138 186.402928,0.0444172293 C188.665968,0.0443347295 190.706247,1.40744773 191.572471,3.49819412 C192.438694,5.58894051 191.960292,7.99562804 190.360324,9.5961198 L171.935844,28.0224564 L190.361723,46.448793 C192.546092,48.633877 192.546092,52.1758984 190.361723,54.3609825" id="path113" transform="translate(164.000000, 28.000000) scale(-1, 1) rotate(-180.000000) translate(-164.000000, -28.000000) "></path>
                        <path d="M50.4,44.8 C53.4927946,44.8 56,47.3072054 56,50.4 C56,53.4927946 53.4927946,56 50.4,56 L5.6,56 C2.5072054,56 0,53.4927946 0,50.4 L0,5.6 C0,2.5072054 2.5072054,0 5.6,0 C8.6927946,0 11.2,2.5072054 11.2,5.6 L11.2,22.4 L50.4,22.4 C53.4927946,22.4 56,24.9072054 56,28 C56,31.0927946 53.4927946,33.6 50.4,33.6 L11.2,33.6 L11.2,44.8 L50.4,44.8 Z" id="path111" transform="translate(28.000000, 28.000000) scale(-1, 1) rotate(-180.000000) translate(-28.000000, -28.000000) "></path>
                    </g>
                </g>
                <g id="w">
                    <path d="M58.6810657,-2.84217094e-14 L92.461175,117.803902 C93.3637733,120.952156 96.3599772,123.237179 99.5855392,123.237179 L129.040651,123.237179 L95.2605418,5.43356143 C94.3576583,2.28530796 91.3614544,-2.84217094e-14 88.1358924,-2.84217094e-14 L58.6810657,-2.84217094e-14 Z" id="path30" transform="translate(93.860858, 61.618589) scale(-1, 1) rotate(-180.000000) translate(-93.860858, -61.618589) "></path>
                    <path d="M0,2.84217094e-14 L33.7801094,117.803902 C34.6824223,120.952156 37.6786262,123.237179 40.9044735,123.237179 L70.3595855,123.237179 L36.5797614,5.43356143 C35.6768779,2.28530796 32.6803887,2.84217094e-14 29.455112,2.84217094e-14 L0,2.84217094e-14 Z" id="path50" transform="translate(35.179793, 61.618589) scale(-1, 1) rotate(-180.000000) translate(-35.179793, -61.618589) "></path>
                </g>
            </g>
        </g>
    </g>
</svg>