<?xml version="1.0" encoding="UTF-8" standalone="no"?>
<svg xmlns:dc="http://purl.org/dc/elements/1.1/" 
  xmlns:cc="http://creativecommons.org/ns#" 
  xmlns:rdf="http://www.w3.org/1999/02/22-rdf-syntax-ns#" 
  xmlns:svg="http://www.w3.org/2000/svg" 
  xmlns="http://www.w3.org/2000/svg" viewBox="0 0 800 800" height="800" width="800" xml:space="preserve" id="svg2" version="1.1">
  <metadata id="metadata8">
    <rdf:RDF>
      <cc:Work rdf:about="">
        <dc:format>image/svg+xml</dc:format>
        <dc:type rdf:resource="http://purl.org/dc/dcmitype/StillImage" />
      </cc:Work>
    </rdf:RDF>
  </metadata>
  <defs id="defs6">
    <clipPath id="clipPath18" clipPathUnits="userSpaceOnUse">
      <path id="path16" d="M 0,800 H 800 V 0 H 0 Z" />
    </clipPath>
    <clipPath id="clipPath66" clipPathUnits="userSpaceOnUse">
      <path id="path64" d="M 0,800 H 800 V 0 H 0 Z" />
    </clipPath>
  </defs>
  <g transform="matrix(1,0,0,-1,0,800)" id="g10">
    <g id="g12">
      <g clip-path="url(#clipPath18)" id="g14">
        <g transform="translate(377.5308,186)" id="g20">
          <path id="path22" style="fill:#ff00ff;fill-opacity:1;fill-rule:nonzero;stroke:none" d="M 0,0 118.414,412.954 C 121.578,423.99 132.081,432 143.388,432 H 246.641 L 128.227,19.047 C 125.062,8.011 114.559,0 103.252,0 Z" />
        </g>
        <g transform="translate(381.5308,182)" id="g24">
          <path id="path26" style="fill:#00ffff;fill-opacity:1;fill-rule:nonzero;stroke:none" d="M 0,0 118.414,412.954 C 121.578,423.99 132.081,432 143.388,432 H 246.641 L 128.227,19.047 C 125.062,8.011 114.559,0 103.252,0 Z" />
        </g>
        <g transform="translate(379.5308,184)" id="g28">
          <path id="path30" style="fill:#000000;fill-opacity:1;fill-rule:nonzero;stroke:none" d="M 0,0 118.414,412.954 C 121.578,423.99 132.081,432 143.388,432 H 246.641 L 128.227,19.047 C 125.062,8.011 114.559,0 103.252,0 Z" />
        </g>
        <g transform="translate(390.1475,192)" id="g32">
          <path id="path34" style="fill:#ff3d00;fill-opacity:1;fill-rule:nonzero;stroke:none" d="m 0,0 115.487,402.749 c 2.165,7.554 9.596,13.251 17.284,13.251 H 225.35 L 220.344,398.339 109.921,13.252 C 107.754,5.697 100.323,0 92.636,0 Z" />
        </g>
        <g transform="translate(400.7646,200)" id="g36">
          <path id="path38" style="fill:#ffffff;fill-opacity:1;fill-rule:nonzero;stroke:none" d="m 0,0 112.56,392.544 c 1.181,4.118 5.476,7.456 9.594,7.456 h 82.02 L 91.613,7.457 C 90.433,3.339 86.138,0 82.02,0 Z" />
        </g>
        <g transform="translate(171.8281,186)" id="g40">
          <path id="path42" style="fill:#ff00ff;fill-opacity:1;fill-rule:nonzero;stroke:none" d="M 0,0 118.414,412.954 C 121.577,423.99 132.08,432 143.388,432 H 246.641 L 128.228,19.047 C 125.063,8.011 114.559,0 103.253,0 Z" />
        </g>
        <g transform="translate(175.8281,182)" id="g44">
          <path id="path46" style="fill:#00ffff;fill-opacity:1;fill-rule:nonzero;stroke:none" d="M 0,0 118.414,412.954 C 121.577,423.99 132.08,432 143.388,432 H 246.641 L 128.228,19.047 C 125.063,8.011 114.559,0 103.253,0 Z" />
        </g>
        <g transform="translate(173.8281,184)" id="g48">
          <path id="path50" style="fill:#000000;fill-opacity:1;fill-rule:nonzero;stroke:none" d="M 0,0 118.414,412.954 C 121.577,423.99 132.08,432 143.388,432 H 246.641 L 128.228,19.047 C 125.063,8.011 114.559,0 103.253,0 Z" />
        </g>
        <g transform="translate(184.4448,192)" id="g52">
          <path id="path54" style="fill:#ff3d00;fill-opacity:1;fill-rule:nonzero;stroke:none" d="m 0,0 115.487,402.749 c 2.165,7.554 9.596,13.251 17.284,13.251 H 225.35 L 220.343,398.339 109.921,13.252 C 107.754,5.697 100.323,0 92.636,0 Z" />
        </g>
        <g transform="translate(195.0615,200)" id="g56">
          <path id="path58" style="fill:#ffffff;fill-opacity:1;fill-rule:nonzero;stroke:none" d="m 0,0 112.56,392.544 c 1.181,4.118 5.477,7.456 9.595,7.456 h 82.019 L 91.614,7.457 C 90.433,3.339 86.138,0 82.02,0 Z" />
        </g>
      </g>
    </g>
    <g id="g60">
      <g clip-path="url(#clipPath66)" id="g62">
        <path id="path68" style="fill:#000000;fill-opacity:1;fill-rule:nonzero;stroke:none" d="m 273.297,112.5 h -24 v 24 h 24 z m 4,32 h -32 c -2.209,0 -4,-1.791 -4,-4 v -32 c 0,-2.209 1.791,-4 4,-4 h 32 c 2.209,0 4,1.791 4,4 v 32 c 0,2.209 -1.791,4 -4,4" />
        <g transform="translate(347.5942,143.3281)" id="g70">
          <path id="path72" style="fill:#000000;fill-opacity:1;fill-rule:nonzero;stroke:none" d="M 0,0 C -1.562,1.562 -4.095,1.562 -5.657,0 L -18.829,-13.172 -32,0 c -1.563,1.562 -4.095,1.562 -5.657,0 -1.562,-1.562 -1.562,-4.095 0,-5.656 L -24.485,-18.828 -37.657,-32 c -1.562,-1.562 -1.562,-4.095 0,-5.656 0.781,-0.782 1.804,-1.172 2.828,-1.172 1.024,0 2.048,0.39 2.829,1.172 l 13.171,13.172 13.172,-13.172 c 0.781,-0.782 1.804,-1.172 2.828,-1.172 1.024,0 2.048,0.39 2.829,1.172 1.562,1.561 1.562,4.094 0,5.656 L -13.172,-18.828 0,-5.656 C 1.562,-4.095 1.562,-1.562 0,0" />
        </g>
        <g transform="translate(209.8281,136.5)" id="g74">
          <path id="path76" style="fill:#000000;fill-opacity:1;fill-rule:nonzero;stroke:none" d="M 0,0 C 2.209,0 4,1.791 4,4 4,6.209 2.209,8 0,8 h -32 c -2.209,0 -4,-1.791 -4,-4 v -32 c 0,-2.209 1.791,-4 4,-4 2.209,0 4,1.791 4,4 v 12 H 0 c 2.209,0 4,1.791 4,4 0,2.209 -1.791,4 -4,4 h -28 v 8 z" />
        </g>
        <path id="path78" style="fill:#000000;fill-opacity:1;fill-rule:nonzero;stroke:none" d="m 479,112.5 h -24 v 24 h 24 z m 4,32 h -32 c -2.209,0 -4,-1.791 -4,-4 v -32 c 0,-2.209 1.791,-4 4,-4 h 32 c 2.209,0 4,1.791 4,4 v 32 c 0,2.209 -1.791,4 -4,4" />
        <g transform="translate(553.2969,143.3281)" id="g80">
          <path id="path82" style="fill:#000000;fill-opacity:1;fill-rule:nonzero;stroke:none" d="M 0,0 C -1.562,1.562 -4.095,1.562 -5.657,0 L -18.828,-13.172 -32,0 c -1.563,1.562 -4.095,1.562 -5.657,0 -1.562,-1.562 -1.562,-4.095 0,-5.656 L -24.485,-18.828 -37.657,-32 c -1.562,-1.562 -1.562,-4.095 0,-5.656 0.781,-0.782 1.804,-1.172 2.829,-1.172 1.023,0 2.047,0.39 2.828,1.172 l 13.172,13.172 13.171,-13.172 c 0.781,-0.782 1.804,-1.172 2.829,-1.172 1.023,0 2.047,0.39 2.828,1.172 1.562,1.561 1.562,4.094 0,5.656 L -13.172,-18.828 0,-5.656 C 1.562,-4.095 1.562,-1.562 0,0" />
        </g>
        <g transform="translate(415.5312,136.5)" id="g84">
          <path id="path86" style="fill:#000000;fill-opacity:1;fill-rule:nonzero;stroke:none" d="M 0,0 C 2.209,0 4,1.791 4,4 4,6.209 2.209,8 0,8 h -32 c -2.209,0 -4,-1.791 -4,-4 v -32 c 0,-2.209 1.791,-4 4,-4 2.208,0 4,1.791 4,4 v 12 H 0 c 2.209,0 4,1.791 4,4 0,2.209 -1.791,4 -4,4 h -28 v 8 z" />
        </g>
      </g>
    </g>
  </g>
</svg>