<svg xmlns="http://www.w3.org/2000/svg" height="800" width="800">
    <path d="M273.297 687.5h-24v-24h24zm4-32h-32a4 4 0 0 0-4 4v32a4 4 0 0 0 4 4h32a4 4 0 0 0 4-4v-32a4 4 0 0 0-4-4M347.594 656.672a4 4 0 0 0-5.657 0l-13.172 13.172-13.17-13.172a4 4 0 0 0-5.658 5.656L323.11 675.5l-13.172 13.172a4 4 0 1 0 5.657 5.656l13.171-13.172 13.172 13.172a3.982 3.982 0 0 0 2.828 1.172 4 4 0 0 0 2.829-6.828L334.422 675.5l13.172-13.172a4 4 0 0 0 0-5.656M209.828 663.5a4 4 0 0 0 0-8h-32a4 4 0 0 0-4 4v32a4 4 0 0 0 8 0v-12h28a4 4 0 0 0 0-8h-28v-8zM479 687.5h-24v-24h24zm4-32h-32a4 4 0 0 0-4 4v32a4 4 0 0 0 4 4h32a4 4 0 0 0 4-4v-32a4 4 0 0 0-4-4M553.297 656.672a4 4 0 0 0-5.657 0l-13.171 13.172-13.172-13.172a4 4 0 0 0-5.657 5.656l13.172 13.172-13.172 13.172a4 4 0 1 0 5.657 5.656l13.172-13.172 13.17 13.172a3.983 3.983 0 0 0 2.83 1.172 4 4 0 0 0 2.828-6.828L540.125 675.5l13.172-13.172a4 4 0 0 0 0-5.656M415.531 663.5a4 4 0 0 0 0-8h-32a4 4 0 0 0-4 4v32a4 4 0 0 0 8 0v-12h28a4 4 0 0 0 0-8h-28v-8z"/>
</svg>