<?xml version="1.0" encoding="utf-8"?>
<!-- Generator: Adobe Illustrator 23.0.3, SVG Export Plug-In . SVG Version: 6.00 Build 0)  -->
<svg version="1.1" 
	xmlns="http://www.w3.org/2000/svg" 
	xmlns:xlink="http://www.w3.org/1999/xlink" x="0px" y="0px" viewBox="0 0 800 800" style="enable-background:new 0 0 800 800;" xml:space="preserve">
	<style type="text/css">
	.st0{fill:none;stroke:#FFFFFF;stroke-miterlimit:10;}
	.st1{display:none;}
	.st2{display:inline;fill:none;}
	.st3{display:inline;fill:#FFFFFF;}
	.st4{display:inline;fill:none;stroke:#000000;stroke-miterlimit:10;}
	</style>
	<g id="pump">
		<g>
			<path d="M522.9,184c-11.3,0-21.8,8-25,19L379.5,616h103.3c11.3,0,21.8-8,25-19l118.4-413L522.9,184z M492.4,592.5
			c-1.2,4.1-5.5,7.5-9.6,7.5h-82l112.6-392.5c1.2-4.1,5.5-7.5,9.6-7.5h82L492.4,592.5z"/>
			<path d="M317.2,184c-11.3,0-21.8,8-25,19L173.8,616h103.3c11.3,0,21.8-8,25-19l118.4-413L317.2,184z M286.7,592.5
			c-1.2,4.1-5.5,7.5-9.6,7.5h-82l112.6-392.5c1.2-4.1,5.5-7.5,9.6-7.5h82L286.7,592.5z"/>
		</g>
		<g>
			<g>
				<path d="M239.9,653h-24.5c-1.7,0-3.1,1.4-3.1,3.1v24.5c0,1.7,1.4,3.1,3.1,3.1h24.5c1.7,0,3.1-1.4,3.1-3.1v-24.5
				C242.9,654.4,241.6,653,239.9,653z M236.8,677.5h-18.4v-18.4h18.4V677.5z"/>
				<path d="M280.4,653.9c-1.2-1.2-3.1-1.2-4.3,0L265.9,664l-10.1-10.1c-1.2-1.2-3.1-1.2-4.3,0c-1.2,1.2-1.2,3.1,0,4.3l10.1,10.1
				l-10.1,10.1c-1.2,1.2-1.2,3.1,0,4.3c0.6,0.6,1.4,0.9,2.2,0.9c0.8,0,1.6-0.3,2.2-0.9l10.1-10.1l10.1,10.1c0.6,0.6,1.4,0.9,2.2,0.9
				s1.6-0.3,2.2-0.9c1.2-1.2,1.2-3.1,0-4.3l-10.1-10.1l10.1-10.1C281.6,657,281.6,655.1,280.4,653.9z"/>
				<path d="M201.6,659.1c1.7,0,3.1-1.4,3.1-3.1s-1.4-3.1-3.1-3.1h-24.5c-1.7,0-3.1,1.4-3.1,3.1v24.5c0,1.7,1.4,3.1,3.1,3.1
				s3.1-1.4,3.1-3.1v-9.2h21.5c1.7,0,3.1-1.4,3.1-3.1s-1.4-3.1-3.1-3.1h-21.5v-6.1H201.6z"/>
				<path d="M330.3,683.6h24.5c1.7,0,3.1-1.4,3.1-3.1v-24.5c0-1.7-1.4-3.1-3.1-3.1h-24.5c-1.7,0-3.1,1.4-3.1,3.1v24.5
				C327.2,682.3,328.6,683.6,330.3,683.6z M333.3,659.1h18.4v18.4h-18.4V659.1z"/>
				<path d="M366.4,682.7c0.6,0.6,1.4,0.9,2.2,0.9s1.6-0.3,2.2-0.9l10.1-10.1l10.1,10.1c0.6,0.6,1.4,0.9,2.2,0.9s1.6-0.3,2.2-0.9
				c1.2-1.2,1.2-3.1,0-4.3l-10.1-10.1l10.1-10.1c1.2-1.2,1.2-3.1,0-4.3c-1.2-1.2-3.1-1.2-4.3,0L380.8,664l-10.1-10.1
				c-1.2-1.2-3.1-1.2-4.3,0c-1.2,1.2-1.2,3.1,0,4.3l10.1,10.1l-10.1,10.1C365.2,679.6,365.2,681.6,366.4,682.7z"/>
				<path d="M316.5,671.4c1.7,0,3.1-1.4,3.1-3.1s-1.4-3.1-3.1-3.1H295v-6.1h21.5c1.7,0,3.1-1.4,3.1-3.1s-1.4-3.1-3.1-3.1H292
				c-1.7,0-3.1,1.4-3.1,3.1v24.5c0,1.7,1.4,3.1,3.1,3.1c1.7,0,3.1-1.4,3.1-3.1v-9.2H316.5z"/>
			</g>
			<g>
				<path d="M494.2,653h-24.5c-1.7,0-3.1,1.4-3.1,3.1v24.5c0,1.7,1.4,3.1,3.1,3.1h24.5c1.7,0,3.1-1.4,3.1-3.1v-24.5
				C497.3,654.4,495.9,653,494.2,653z M491.2,677.5h-18.4v-18.4h18.4V677.5z"/>
				<path d="M602.9,653.9c-0.6-0.6-1.4-0.9-2.2-0.9h-12.3c-1.7,0-3.1,1.4-3.1,3.1v24.5c0,1.7,1.4,3.1,3.1,3.1H613
				c1.7,0,3.1-1.4,3.1-3.1v-12.3c0-0.8-0.3-1.6-0.9-2.2L602.9,653.9z M609.9,677.5h-18.4v-18.4h7.9l10.5,10.5V677.5z"/>
				<path d="M552.5,677.5H531v-21.5c0-1.7-1.4-3.1-3.1-3.1s-3.1,1.4-3.1,3.1v24.5c0,1.7,1.4,3.1,3.1,3.1h24.5c1.7,0,3.1-1.4,3.1-3.1
				S554.1,677.5,552.5,677.5z"/>
				<path d="M578.5,653H554c-1.7,0-3.1,1.4-3.1,3.1s1.4,3.1,3.1,3.1h9.2v21.5c0,1.7,1.4,3.1,3.1,3.1c1.7,0,3.1-1.4,3.1-3.1v-21.5h9.2
				c1.7,0,3.1-1.4,3.1-3.1S580.2,653,578.5,653z"/>
				<path d="M625.9,680c0-0.2-0.1-0.4-0.2-0.6c-0.1-0.2-0.2-0.4-0.3-0.5c-0.1-0.2-0.2-0.3-0.4-0.5c-0.1-0.1-0.3-0.3-0.5-0.4
				c-0.2-0.1-0.3-0.2-0.5-0.3c-0.2-0.1-0.4-0.1-0.6-0.2c-0.4-0.1-0.8-0.1-1.2,0c-0.2,0-0.4,0.1-0.6,0.2c-0.2,0.1-0.4,0.2-0.5,0.3
				c-0.2,0.1-0.3,0.2-0.5,0.4c-0.1,0.1-0.3,0.3-0.4,0.5c-0.1,0.2-0.2,0.3-0.3,0.5c-0.1,0.2-0.1,0.4-0.2,0.6c0,0.2-0.1,0.4-0.1,0.6
				c0,0.2,0,0.4,0.1,0.6c0,0.2,0.1,0.4,0.2,0.6c0.1,0.2,0.2,0.4,0.3,0.5c0.1,0.2,0.2,0.3,0.4,0.5c0.1,0.1,0.3,0.3,0.5,0.4
				c0.2,0.1,0.3,0.2,0.5,0.3c0.2,0.1,0.4,0.1,0.6,0.2c0.2,0,0.4,0.1,0.6,0.1c0.2,0,0.4,0,0.6-0.1c0.2,0,0.4-0.1,0.6-0.2
				c0.2-0.1,0.4-0.2,0.5-0.3c0.2-0.1,0.3-0.2,0.5-0.4c0.1-0.1,0.3-0.3,0.4-0.5c0.1-0.2,0.2-0.3,0.3-0.5c0.1-0.2,0.1-0.4,0.2-0.6
				c0-0.2,0.1-0.4,0.1-0.6C626,680.4,626,680.2,625.9,680z"/>
				<path d="M507.2,680c0-0.2-0.1-0.4-0.2-0.6c-0.1-0.2-0.2-0.4-0.3-0.5c-0.1-0.2-0.2-0.3-0.4-0.5c-0.1-0.1-0.3-0.3-0.5-0.4
				c-0.2-0.1-0.3-0.2-0.5-0.3c-0.2-0.1-0.4-0.1-0.6-0.2c-0.4-0.1-0.8-0.1-1.2,0c-0.2,0-0.4,0.1-0.6,0.2c-0.2,0.1-0.4,0.2-0.5,0.3
				c-0.2,0.1-0.3,0.2-0.5,0.4c-0.1,0.1-0.3,0.3-0.4,0.5c-0.1,0.2-0.2,0.3-0.3,0.5c-0.1,0.2-0.1,0.4-0.2,0.6c0,0.2-0.1,0.4-0.1,0.6
				c0,0.2,0,0.4,0.1,0.6c0,0.2,0.1,0.4,0.2,0.6c0.1,0.2,0.2,0.4,0.3,0.5c0.1,0.2,0.2,0.3,0.4,0.5c0.1,0.1,0.3,0.3,0.5,0.4
				c0.2,0.1,0.3,0.2,0.5,0.3c0.2,0.1,0.4,0.1,0.6,0.2c0.2,0,0.4,0.1,0.6,0.1s0.4,0,0.6-0.1c0.2,0,0.4-0.1,0.6-0.2
				c0.2-0.1,0.4-0.2,0.5-0.3c0.2-0.1,0.3-0.2,0.5-0.4c0.1-0.1,0.3-0.3,0.4-0.5c0.1-0.2,0.2-0.3,0.3-0.5c0.1-0.2,0.1-0.4,0.2-0.6
				c0-0.2,0.1-0.4,0.1-0.6C507.3,680.4,507.2,680.2,507.2,680z"/>
				<path d="M454.4,659.1c1.7,0,3.1-1.4,3.1-3.1s-1.4-3.1-3.1-3.1h-24.5c-1.7,0-3.1,1.4-3.1,3.1v24.5c0,1.7,1.4,3.1,3.1,3.1h24.5
				c1.7,0,3.1-1.4,3.1-3.1s-1.4-3.1-3.1-3.1h-21.5v-18.4H454.4z"/>
				<path d="M514.1,677.5c-1.7,0-3.1,1.4-3.1,3.1v1l-2.9,2.9c-1.2,1.2-1.2,3.1,0,4.3c0.6,0.6,1.4,0.9,2.2,0.9s1.6-0.3,2.2-0.9
				l3.8-3.8c0.1-0.1,0.3-0.3,0.4-0.5c0-0.1,0.1-0.2,0.1-0.2c0.1-0.1,0.1-0.2,0.2-0.3c0-0.1,0.1-0.2,0.1-0.3c0-0.1,0.1-0.2,0.1-0.3
				c0-0.2,0.1-0.4,0.1-0.6v-2.3C517.2,678.9,515.8,677.5,514.1,677.5z"/>
			</g>
		</g>
	</g>
	<g id="gd" class="st1">
		<circle class="st2" cx="400" cy="400" r="400"/>
		<rect class="st2" width="7" height="7"/>
		<rect class="st3" width="1" height="1"/>
		<rect x="1" y="1" class="st3" width="1" height="1"/>
		<rect x="2" y="2" class="st3" width="1" height="1"/>
		<rect x="3" y="3" class="st3" width="1" height="1"/>
		<rect x="1" class="st3" width="1" height="1"/>
		<rect x="2" y="1" class="st3" width="1" height="1"/>
		<rect x="3" y="2" class="st3" width="1" height="1"/>
		<rect x="4" y="3" class="st3" width="1" height="1"/>
		<rect x="2" class="st3" width="1" height="1"/>
		<rect x="3" y="1" class="st3" width="1" height="1"/>
		<rect x="4" y="2" class="st3" width="1" height="1"/>
		<rect x="5" y="3" class="st3" width="1" height="1"/>
		<rect x="3" class="st3" width="1" height="1"/>
		<rect x="4" y="1" class="st3" width="1" height="1"/>
		<rect x="5" y="2" class="st3" width="1" height="1"/>
		<rect x="6" y="3" class="st3" width="1" height="1"/>
		<rect x="4" y="4" class="st3" width="1" height="1"/>
		<rect x="5" y="5" class="st3" width="1" height="1"/>
		<rect x="6" y="6" class="st3" width="1" height="1"/>
		<rect x="7" y="7" class="st3" width="1" height="1"/>
		<rect x="5" y="4" class="st3" width="1" height="1"/>
		<rect x="6" y="5" class="st3" width="1" height="1"/>
		<rect y="6" class="st3" width="1" height="1"/>
		<rect x="8" y="7" class="st3" width="1" height="1"/>
		<rect x="6" y="4" class="st3" width="1" height="1"/>
		<rect y="5" class="st3" width="1" height="1"/>
		<rect x="1" y="6" class="st3" width="1" height="1"/>
		<rect x="9" y="7" class="st3" width="1" height="1"/>
		<rect y="4" class="st3" width="1" height="1"/>
		<rect x="1" y="5" class="st3" width="1" height="1"/>
		<rect x="2" y="6" class="st3" width="1" height="1"/>
		<rect x="10" y="7" class="st3" width="1" height="1"/>
		<path class="st4" d="M0,0.1c0,273,221.3,494.2,494.2,494.2c168.7,0,305.4-136.7,305.4-305.4c0-104.2-84.5-188.8-188.8-188.8
		c-64.4,0-116.7,52.2-116.7,116.7c0,39.8,32.3,72.1,72.1,72.1c24.6,0,44.6-19.9,44.6-44.6c0-15.2-12.3-27.5-27.5-27.5
		c-9.4,0-17,7.6-17,17c0,5.8,4.7,10.5,10.5,10.5c3.6,0,6.5-2.9,6.5-6.5"/>
		<path class="st4" d="M800,0.4c-273,0-494.2,221.3-494.2,494.2c0,168.7,136.7,305.4,305.4,305.4c104.2,0,188.8-84.5,188.8-188.8
		c0-64.4-52.2-116.7-116.7-116.7c-39.8,0-72.1,32.3-72.1,72.1c0,24.6,19.9,44.6,44.6,44.6c15.2,0,27.5-12.3,27.5-27.5
		c0-9.4-7.6-17-17-17c-5.8,0-10.5,4.7-10.5,10.5c0,3.6,2.9,6.5,6.5,6.5"/>
		<path class="st4" d="M800,0.1c0,273-221.3,494.2-494.2,494.2C137.1,494.3,0.3,357.6,0.3,188.9C0.3,84.6,84.9,0.1,189.1,0.1
		c64.4,0,116.7,52.2,116.7,116.7c0,39.8-32.3,72.1-72.1,72.1c-24.6,0-44.6-19.9-44.6-44.6c0-15.2,12.3-27.5,27.5-27.5
		c9.4,0,17,7.6,17,17c0,5.8-4.7,10.5-10.5,10.5c-3.6,0-6.5-2.9-6.5-6.5"/>
		<path class="st4" d="M0,800c0-273,221.3-494.2,494.2-494.2c168.7,0,305.4,136.7,305.4,305.4c0,104.2-84.5,188.8-188.8,188.8
		c-64.4,0-116.7-52.2-116.7-116.7c0-39.8,32.3-72.1,72.1-72.1c24.6,0,44.6,19.9,44.6,44.6c0,15.2-12.3,27.5-27.5,27.5
		c-9.4,0-17-7.6-17-17c0-5.8,4.7-10.5,10.5-10.5c3.6,0,6.5,2.9,6.5,6.5"/>
		<path class="st4" d="M800,800c0-273-221.3-494.2-494.2-494.2C137.1,305.8,0.3,442.5,0.3,611.2C0.3,715.5,84.9,800,189.1,800
		c64.4,0,116.7-52.2,116.7-116.7c0-39.8-32.3-72.1-72.1-72.1c-24.6,0-44.6,19.9-44.6,44.6c0,15.2,12.3,27.5,27.5,27.5
		c9.4,0,17-7.6,17-17c0-5.8-4.7-10.5-10.5-10.5c-3.6,0-6.5,2.9-6.5,6.5"/>
		<path class="st4" d="M0,0.4c273,0,494.2,221.3,494.2,494.2c0,168.7-136.7,305.4-305.4,305.4C84.5,800.1,0,715.6,0,611.3
		c0-64.4,52.2-116.7,116.7-116.7c39.8,0,72.1,32.3,72.1,72.1c0,24.6-19.9,44.6-44.6,44.6c-15.2,0-27.5-12.3-27.5-27.5
		c0-9.4,7.6-17,17-17c5.8,0,10.5,4.7,10.5,10.5c0,3.6-2.9,6.5-6.5,6.5"/>
		<path class="st4" d="M800,800.1c-273,0-494.2-221.3-494.2-494.2c0-168.7,136.7-305.4,305.4-305.4C715.5,0.4,800,84.9,800,189.2
		c0,64.4-52.2,116.7-116.7,116.7c-39.8,0-72.1-32.3-72.1-72.1c0-24.6,19.9-44.6,44.6-44.6c15.2,0,27.5,12.3,27.5,27.5
		c0,9.4-7.6,17-17,17c-5.8,0-10.5-4.7-10.5-10.5c0-3.6,2.9-6.5,6.5-6.5"/>
		<path class="st4" d="M0,800.1c273,0,494.2-221.3,494.2-494.2c0-168.7-136.7-305.4-305.4-305.4C84.5,0.4,0,84.9,0,189.2
		c0,64.4,52.2,116.7,116.7,116.7c39.8,0,72.1-32.3,72.1-72.1c0-24.6-19.9-44.6-44.6-44.6c-15.2,0-27.5,12.3-27.5,27.5
		c0,9.4,7.6,17,17,17c5.8,0,10.5-4.7,10.5-10.5c0-3.6-2.9-6.5-6.5-6.5"/>
	</g>
</svg>
