<?xml version="1.0" encoding="UTF-8" standalone="no"?>
<svg
   xmlns:dc="http://purl.org/dc/elements/1.1/"
   xmlns:cc="http://creativecommons.org/ns#"
   xmlns:rdf="http://www.w3.org/1999/02/22-rdf-syntax-ns#"
   xmlns:svg="http://www.w3.org/2000/svg"
   xmlns="http://www.w3.org/2000/svg"
   width="277.84198"
   height="40.0322"
   viewBox="0 0 73.51236 10.591853"
   version="1.1"
   id="svg8">
  <defs
     id="defs2">
    <clipPath
       id="a">
      <path
         id="path81"
         d="m -173.828,1455.5 h 800 v -800 h -800 z" />
    </clipPath>
  </defs>
  <metadata
     id="metadata5">
    <rdf:RDF>
      <cc:Work
         rdf:about="">
        <dc:format>image/svg+xml</dc:format>
        <dc:type
           rdf:resource="http://purl.org/dc/dcmitype/StillImage" />
        <dc:title></dc:title>
      </cc:Work>
    </rdf:RDF>
  </metadata>
  <g
     style="fill:#000000"
     transform="translate(-2.5611496,-4.4421066)"
     id="layer1">
    <g
       style="fill:#000000"
       id="g90"
       class="layer"
       transform="matrix(0.26458333,0,0,0.26458333,2.5611496,4.4422442)">
      <g
         style="fill:#000000"
         id="g88"
         transform="matrix(1,0,0,-1,0,800)"
         clip-path="url(#a)">
        <path
           d="m 51.468502,800.00052 a 3.9999999,3.9999999 0 0 1 -4,-4 v -32 a 3.9999999,3.9999999 0 0 1 4,-4 h 32.000002 a 3.9999999,3.9999999 0 0 1 4,4 v 32 a 3.9999999,3.9999999 0 0 1 -4,4 z m 4,-8 h 24.000002 v -24 H 55.468502 Z"
           id="path115"
           style="fill:#000000" />
        <path
           d="m 133.766,798.828 a 4,4 0 0 1 -5.657,0 l -13.172,-13.172 -13.171,13.172 a 4,4 0 0 1 -5.657,-5.656 L 109.28,780 96.108,766.828 a 4,4 0 1 1 5.657,-5.656 l 13.17,13.172 13.173,-13.172 a 3.982,3.982 0 0 1 2.828,-1.172 4,4 0 0 1 2.829,6.828 L 120.594,780 l 13.172,13.172 a 4,4 0 0 1 0,5.656"
           id="path113"
           style="opacity:1;vector-effect:none;fill:#000000;fill-opacity:1;stroke-width:1;stroke-linecap:butt;stroke-linejoin:miter;stroke-miterlimit:4;stroke-dasharray:none;stroke-dashoffset:0;stroke-opacity:1" />
        <path
           d="m 36,792 a 4,4 0 0 1 0,8 H 4 a 4,4 0 0 1 -4,-4 v -32 a 4,4 0 0 1 8,0 v 12 h 28 a 4,4 0 0 1 0,8 H 8 v 8 z"
           id="path111"
           style="fill:#000000" />
        <path
           d="m 194.37334,800.0005 a 4,4 0 0 1 -4,-4 v -32 a 4,4 0 0 1 4,-4 h 32.00001 a 4,4 0 0 1 4,4 v 32 a 4,4 0 0 1 -4,4 z m 4,-8 h 24.00001 v -24 h -24.00001 z"
           id="path115-8"
           style="fill:#000000" />
        <path
           d="m 276.67085,798.82798 a 4.0000001,4.0000001 0 0 1 -5.657,0 l -13.172,-13.172 -13.17101,13.172 a 4.0000001,4.0000001 0 0 1 -5.657,-5.656 l 13.171,-13.172 -13.172,-13.172 a 4.0000001,4.0000001 0 1 1 5.657,-5.656 l 13.17001,13.172 13.173,-13.172 a 3.9820001,3.9820001 0 0 1 2.828,-1.172 4.0000001,4.0000001 0 0 1 2.829,6.828 l -13.171,13.172 13.172,13.172 a 4.0000001,4.0000001 0 0 1 0,5.656"
           id="path113-0"
           style="fill:#000000" />
        <path
           d="m 178.90484,791.99998 a 4.0000001,4.0000001 0 0 1 0,8 h -32 a 4.0000001,4.0000001 0 0 1 -4,-4 v -32 a 4.0000001,4.0000001 0 0 1 8,0 v 12 h 28 a 4.0000001,4.0000001 0 0 1 0,8 h -28 v 8 z"
           id="path111-2"
           style="fill:#000000" />
      </g>
    </g>
  </g>
</svg>
