<?xml version="1.0" encoding="utf-8"?>
<!-- Generator: Adobe Illustrator 23.0.3, SVG Export Plug-In . SVG Version: 6.00 Build 0)  -->
<svg version="1.1" id="pump" xmlns="http://www.w3.org/2000/svg" xmlns:xlink="http://www.w3.org/1999/xlink" x="0px" y="0px"
	 viewBox="0 0 800 800" style="enable-background:new 0 0 800 800;" xml:space="preserve">
<style type="text/css">
	.st0{fill:none;stroke:#000000;stroke-miterlimit:10;}
</style>
<g>
	<path d="M522.9,151c-11.3,0-21.8,8-25,19L379.5,583h103.3c11.3,0,21.8-8,25-19l118.4-413L522.9,151z M492.4,559.5
		c-1.2,4.1-5.5,7.5-9.6,7.5h-82l112.6-392.5c1.2-4.1,5.5-7.5,9.6-7.5h82L492.4,559.5z"/>
	<path d="M317.2,151c-11.3,0-21.8,8-25,19L173.8,583h103.3c11.3,0,21.8-8,25-19l118.4-413L317.2,151z M286.7,559.5
		c-1.2,4.1-5.5,7.5-9.6,7.5h-82l112.6-392.5c1.2-4.1,5.5-7.5,9.6-7.5h82L286.7,559.5z"/>
</g>
<g>
	<g>
		<path d="M230,624h-26c-1.8,0-3.3,1.5-3.3,3.3v26c0,1.8,1.5,3.3,3.3,3.3h26c1.8,0,3.3-1.5,3.3-3.3v-26
			C233.2,625.4,231.8,624,230,624z M226.7,650h-19.5v-19.5h19.5V650z"/>
		<path d="M272.9,624.9c-1.3-1.3-3.3-1.3-4.6,0l-10.7,10.7l-10.7-10.7c-1.3-1.3-3.3-1.3-4.6,0c-1.3,1.3-1.3,3.3,0,4.6l10.7,10.7
			L242.3,651c-1.3,1.3-1.3,3.3,0,4.6c0.6,0.6,1.5,1,2.3,1s1.7-0.3,2.3-1l10.7-10.7l10.7,10.7c0.6,0.6,1.5,1,2.3,1
			c0.8,0,1.7-0.3,2.3-1c1.3-1.3,1.3-3.3,0-4.6l-10.7-10.7l10.7-10.7C274.2,628.3,274.2,626.2,272.9,624.9z"/>
		<path d="M189.3,630.5c1.8,0,3.3-1.5,3.3-3.3s-1.5-3.3-3.3-3.3h-26c-1.8,0-3.3,1.5-3.3,3.3v26c0,1.8,1.5,3.3,3.3,3.3
			c1.8,0,3.3-1.5,3.3-3.3v-9.8h22.8c1.8,0,3.3-1.5,3.3-3.3c0-1.8-1.5-3.3-3.3-3.3h-22.8v-6.5H189.3z"/>
		<path d="M326,656.5h26c1.8,0,3.3-1.5,3.3-3.3v-26c0-1.8-1.5-3.3-3.3-3.3h-26c-1.8,0-3.3,1.5-3.3,3.3v26
			C322.7,655.1,324.2,656.5,326,656.5z M329.2,630.5h19.5V650h-19.5V630.5z"/>
		<path d="M364.3,655.6c0.6,0.6,1.5,1,2.3,1s1.7-0.3,2.3-1l10.7-10.7l10.7,10.7c0.6,0.6,1.5,1,2.3,1c0.8,0,1.7-0.3,2.3-1
			c1.3-1.3,1.3-3.3,0-4.6l-10.7-10.7l10.7-10.7c1.3-1.3,1.3-3.3,0-4.6c-1.3-1.3-3.3-1.3-4.6,0l-10.7,10.7l-10.7-10.7
			c-1.3-1.3-3.3-1.3-4.6,0c-1.3,1.3-1.3,3.3,0,4.6l10.7,10.7L364.3,651C363.1,652.2,363.1,654.3,364.3,655.6z"/>
		<path d="M311.3,643.5c1.8,0,3.3-1.5,3.3-3.3c0-1.8-1.5-3.3-3.3-3.3h-22.8v-6.5h22.8c1.8,0,3.3-1.5,3.3-3.3s-1.5-3.3-3.3-3.3h-26
			c-1.8,0-3.3,1.5-3.3,3.3v26c0,1.8,1.5,3.3,3.3,3.3s3.3-1.5,3.3-3.3v-9.8H311.3z"/>
	</g>
	<g>
		<path d="M500.1,624h-26c-1.8,0-3.3,1.5-3.3,3.3v26c0,1.8,1.5,3.3,3.3,3.3h26c1.8,0,3.3-1.5,3.3-3.3v-26
			C503.3,625.4,501.9,624,500.1,624z M496.8,650h-19.5v-19.5h19.5V650z"/>
		<path d="M615.5,624.9c-0.6-0.6-1.4-1-2.3-1h-13c-1.8,0-3.3,1.5-3.3,3.3v26c0,1.8,1.5,3.3,3.3,3.3h26c1.8,0,3.3-1.5,3.3-3.3v-13
			c0-0.9-0.3-1.7-1-2.3L615.5,624.9z M622.9,650h-19.5v-19.5h8.4l11.1,11.1V650z"/>
		<path d="M561.9,650h-22.8v-22.8c0-1.8-1.5-3.3-3.3-3.3c-1.8,0-3.3,1.5-3.3,3.3v26c0,1.8,1.5,3.3,3.3,3.3h26c1.8,0,3.3-1.5,3.3-3.3
			C565.2,651.5,563.7,650,561.9,650z"/>
		<path d="M589.6,624h-26c-1.8,0-3.3,1.5-3.3,3.3s1.5,3.3,3.3,3.3h9.8v22.8c0,1.8,1.5,3.3,3.3,3.3c1.8,0,3.3-1.5,3.3-3.3v-22.8h9.8
			c1.8,0,3.3-1.5,3.3-3.3S591.4,624,589.6,624z"/>
		<path d="M639.9,652.6c0-0.2-0.1-0.4-0.2-0.6c-0.1-0.2-0.2-0.4-0.3-0.6c-0.1-0.2-0.3-0.3-0.4-0.5c-0.1-0.1-0.3-0.3-0.5-0.4
			c-0.2-0.1-0.4-0.2-0.6-0.3c-0.2-0.1-0.4-0.1-0.6-0.2c-0.4-0.1-0.8-0.1-1.3,0c-0.2,0-0.4,0.1-0.6,0.2c-0.2,0.1-0.4,0.2-0.6,0.3
			c-0.2,0.1-0.3,0.3-0.5,0.4c-0.1,0.2-0.3,0.3-0.4,0.5c-0.1,0.2-0.2,0.4-0.3,0.6c-0.1,0.2-0.1,0.4-0.2,0.6c0,0.2-0.1,0.4-0.1,0.6
			c0,0.2,0,0.4,0.1,0.6c0,0.2,0.1,0.4,0.2,0.6c0.1,0.2,0.2,0.4,0.3,0.6c0.1,0.2,0.3,0.3,0.4,0.5c0.1,0.1,0.3,0.3,0.5,0.4
			c0.2,0.1,0.4,0.2,0.6,0.3c0.2,0.1,0.4,0.1,0.6,0.2c0.2,0,0.4,0.1,0.6,0.1c0.2,0,0.4,0,0.6-0.1c0.2,0,0.4-0.1,0.6-0.2
			c0.2-0.1,0.4-0.2,0.6-0.3c0.2-0.1,0.4-0.3,0.5-0.4c0.1-0.2,0.3-0.3,0.4-0.5c0.1-0.2,0.2-0.4,0.3-0.6c0.1-0.2,0.1-0.4,0.2-0.6
			c0-0.2,0.1-0.4,0.1-0.6C640,653.1,640,652.8,639.9,652.6z"/>
		<path d="M513.8,652.6c0-0.2-0.1-0.4-0.2-0.6c-0.1-0.2-0.2-0.4-0.3-0.6c-0.1-0.2-0.3-0.3-0.4-0.5c-0.1-0.1-0.3-0.3-0.5-0.4
			c-0.2-0.1-0.4-0.2-0.6-0.3c-0.2-0.1-0.4-0.1-0.6-0.2c-0.4-0.1-0.8-0.1-1.3,0c-0.2,0-0.4,0.1-0.6,0.2c-0.2,0.1-0.4,0.2-0.6,0.3
			c-0.2,0.1-0.3,0.3-0.5,0.4c-0.1,0.2-0.3,0.3-0.4,0.5c-0.1,0.2-0.2,0.4-0.3,0.6c-0.1,0.2-0.1,0.4-0.2,0.6c0,0.2-0.1,0.4-0.1,0.6
			c0,0.2,0,0.4,0.1,0.6c0,0.2,0.1,0.4,0.2,0.6c0.1,0.2,0.2,0.4,0.3,0.6c0.1,0.2,0.3,0.3,0.4,0.5c0.1,0.1,0.3,0.3,0.5,0.4
			c0.2,0.1,0.4,0.2,0.6,0.3c0.2,0.1,0.4,0.1,0.6,0.2c0.2,0,0.4,0.1,0.6,0.1s0.4,0,0.6-0.1c0.2,0,0.4-0.1,0.6-0.2
			c0.2-0.1,0.4-0.2,0.6-0.3c0.2-0.1,0.4-0.3,0.5-0.4c0.1-0.2,0.3-0.3,0.4-0.5c0.1-0.2,0.2-0.4,0.3-0.6c0.1-0.2,0.1-0.4,0.2-0.6
			c0-0.2,0.1-0.4,0.1-0.6C513.9,653.1,513.9,652.8,513.8,652.6z"/>
		<path d="M457.8,630.5c1.8,0,3.3-1.5,3.3-3.3s-1.5-3.3-3.3-3.3h-26c-1.8,0-3.3,1.5-3.3,3.3v26c0,1.8,1.5,3.3,3.3,3.3h26
			c1.8,0,3.3-1.5,3.3-3.3c0-1.8-1.5-3.3-3.3-3.3H435v-19.5H457.8z"/>
		<path d="M521.2,650c-1.8,0-3.3,1.5-3.3,3.3v1.1l-3.1,3.1c-1.3,1.3-1.3,3.3,0,4.6c0.6,0.6,1.5,1,2.3,1s1.7-0.3,2.3-1l4.1-4.1
			c0.2-0.2,0.3-0.3,0.4-0.5c0.1-0.1,0.1-0.2,0.1-0.2c0.1-0.1,0.1-0.2,0.2-0.3c0-0.1,0.1-0.2,0.1-0.3c0-0.1,0.1-0.2,0.1-0.3
			c0-0.2,0.1-0.4,0.1-0.6v-2.4C524.5,651.5,523,650,521.2,650z"/>
	</g>
</g>
<circle class="st0" cx="400" cy="400" r="400"/>
</svg>
