<?xml version="1.0" encoding="utf-8"?>
<!-- Generator: Adobe Illustrator 23.0.3, SVG Export Plug-In . SVG Version: 6.00 Build 0)  -->
<svg version="1.1" id="pump" xmlns="http://www.w3.org/2000/svg" xmlns:xlink="http://www.w3.org/1999/xlink" x="0px" y="0px"
	 viewBox="0 0 800 800" style="enable-background:new 0 0 800 800;" xml:space="preserve">
<style type="text/css">
	.st0{fill:none;stroke:#000000;stroke-miterlimit:10;}
</style>
<g>
	<path d="M522.9,151c-11.3,0-21.8,8-25,19L379.5,583h103.3c11.3,0,21.8-8,25-19l118.4-413L522.9,151z M492.4,559.5
		c-1.2,4.1-5.5,7.5-9.6,7.5h-82l112.6-392.5c1.2-4.1,5.5-7.5,9.6-7.5h82L492.4,559.5z"/>
	<path d="M317.2,151c-11.3,0-21.8,8-25,19L173.8,583h103.3c11.3,0,21.8-8,25-19l118.4-413L317.2,151z M286.7,559.5
		c-1.2,4.1-5.5,7.5-9.6,7.5h-82l112.6-392.5c1.2-4.1,5.5-7.5,9.6-7.5h82L286.7,559.5z"/>
</g>
<g>
	<g>
		<path d="M251.2,626.4h-22.8c-1.6,0-2.8,1.3-2.8,2.8V652c0,1.6,1.3,2.8,2.8,2.8h22.8c1.6,0,2.8-1.3,2.8-2.8v-22.8
			C254.1,627.7,252.8,626.4,251.2,626.4z M248.4,649.2h-17.1v-17.1h17.1V649.2z"/>
		<path d="M288.8,627.2c-1.1-1.1-2.9-1.1-4,0l-9.4,9.4l-9.4-9.4c-1.1-1.1-2.9-1.1-4,0c-1.1,1.1-1.1,2.9,0,4l9.4,9.4L262,650
			c-1.1,1.1-1.1,2.9,0,4c0.6,0.6,1.3,0.8,2,0.8c0.7,0,1.5-0.3,2-0.8l9.4-9.4l9.4,9.4c0.6,0.6,1.3,0.8,2,0.8s1.5-0.3,2-0.8
			c1.1-1.1,1.1-2.9,0-4l-9.4-9.4l9.4-9.4C289.9,630.2,289.9,628.4,288.8,627.2z"/>
		<path d="M215.6,632.1c1.6,0,2.8-1.3,2.8-2.8c0-1.6-1.3-2.8-2.8-2.8h-22.8c-1.6,0-2.8,1.3-2.8,2.8V652c0,1.6,1.3,2.8,2.8,2.8
			s2.8-1.3,2.8-2.8v-8.5h19.9c1.6,0,2.8-1.3,2.8-2.8s-1.3-2.8-2.8-2.8h-19.9v-5.7H215.6z"/>
		<path d="M335.2,654.9H358c1.6,0,2.8-1.3,2.8-2.8v-22.8c0-1.6-1.3-2.8-2.8-2.8h-22.8c-1.6,0-2.8,1.3-2.8,2.8V652
			C332.4,653.6,333.6,654.9,335.2,654.9z M338.1,632.1h17.1v17.1h-17.1V632.1z"/>
		<path d="M368.8,654.1c0.6,0.6,1.3,0.8,2,0.8c0.7,0,1.5-0.3,2-0.8l9.4-9.4l9.4,9.4c0.6,0.6,1.3,0.8,2,0.8s1.5-0.3,2-0.8
			c1.1-1.1,1.1-2.9,0-4l-9.4-9.4l9.4-9.4c1.1-1.1,1.1-2.9,0-4c-1.1-1.1-2.9-1.1-4,0l-9.4,9.4l-9.4-9.4c-1.1-1.1-2.9-1.1-4,0
			c-1.1,1.1-1.1,2.9,0,4l9.4,9.4l-9.4,9.4C367.7,651.1,367.7,652.9,368.8,654.1z"/>
		<path d="M322.4,643.5c1.6,0,2.8-1.3,2.8-2.8s-1.3-2.8-2.8-2.8h-19.9v-5.7h19.9c1.6,0,2.8-1.3,2.8-2.8c0-1.6-1.3-2.8-2.8-2.8h-22.8
			c-1.6,0-2.8,1.3-2.8,2.8V652c0,1.6,1.3,2.8,2.8,2.8c1.6,0,2.8-1.3,2.8-2.8v-8.5H322.4z"/>
	</g>
	<g>
		<path d="M487.6,626.4h-22.8c-1.6,0-2.8,1.3-2.8,2.8V652c0,1.6,1.3,2.8,2.8,2.8h22.8c1.6,0,2.8-1.3,2.8-2.8v-22.8
			C490.4,627.7,489.1,626.4,487.6,626.4z M484.7,649.2h-17.1v-17.1h17.1V649.2z"/>
		<path d="M588.5,627.2c-0.5-0.5-1.3-0.8-2-0.8h-11.4c-1.6,0-2.8,1.3-2.8,2.8V652c0,1.6,1.3,2.8,2.8,2.8h22.8c1.6,0,2.8-1.3,2.8-2.8
			v-11.4c0-0.8-0.3-1.5-0.8-2L588.5,627.2z M595.1,649.2H578v-17.1h7.4l9.7,9.7V649.2z"/>
		<path d="M541.7,649.2h-19.9v-19.9c0-1.6-1.3-2.8-2.8-2.8s-2.8,1.3-2.8,2.8V652c0,1.6,1.3,2.8,2.8,2.8h22.8c1.6,0,2.8-1.3,2.8-2.8
			S543.2,649.2,541.7,649.2z"/>
		<path d="M565.9,626.4h-22.8c-1.6,0-2.8,1.3-2.8,2.8c0,1.6,1.3,2.8,2.8,2.8h8.5V652c0,1.6,1.3,2.8,2.8,2.8s2.8-1.3,2.8-2.8v-19.9
			h8.5c1.6,0,2.8-1.3,2.8-2.8C568.7,627.7,567.4,626.4,565.9,626.4z"/>
		<path d="M609.9,651.5c0-0.2-0.1-0.4-0.2-0.5c-0.1-0.2-0.2-0.3-0.3-0.5c-0.1-0.2-0.2-0.3-0.4-0.4c-0.1-0.1-0.3-0.2-0.4-0.4
			c-0.1-0.1-0.3-0.2-0.5-0.3c-0.2-0.1-0.3-0.1-0.5-0.2c-0.4-0.1-0.7-0.1-1.1,0c-0.2,0-0.4,0.1-0.5,0.2c-0.2,0.1-0.3,0.2-0.5,0.3
			c-0.2,0.1-0.3,0.2-0.4,0.4c-0.1,0.1-0.2,0.3-0.3,0.4c-0.1,0.2-0.2,0.3-0.3,0.5c-0.1,0.2-0.1,0.3-0.2,0.5c0,0.2-0.1,0.4-0.1,0.6
			s0,0.4,0.1,0.6c0,0.2,0.1,0.4,0.2,0.5c0.1,0.2,0.2,0.3,0.3,0.5c0.1,0.2,0.2,0.3,0.4,0.4c0.1,0.1,0.3,0.2,0.4,0.4
			c0.2,0.1,0.3,0.2,0.5,0.3c0.2,0.1,0.4,0.1,0.5,0.2c0.2,0,0.4,0.1,0.6,0.1c0.2,0,0.4,0,0.6-0.1c0.2,0,0.4-0.1,0.5-0.2
			c0.2-0.1,0.3-0.2,0.5-0.3c0.2-0.1,0.3-0.2,0.4-0.4c0.1-0.1,0.2-0.3,0.4-0.4c0.1-0.2,0.2-0.3,0.3-0.5c0.1-0.2,0.1-0.3,0.2-0.5
			c0-0.2,0.1-0.4,0.1-0.6S610,651.7,609.9,651.5z"/>
		<path d="M499.6,651.5c0-0.2-0.1-0.4-0.2-0.5c-0.1-0.2-0.2-0.3-0.3-0.5c-0.1-0.2-0.2-0.3-0.4-0.4c-0.1-0.1-0.3-0.2-0.4-0.4
			c-0.1-0.1-0.3-0.2-0.5-0.3c-0.2-0.1-0.3-0.1-0.5-0.2c-0.4-0.1-0.7-0.1-1.1,0c-0.2,0-0.4,0.1-0.5,0.2c-0.2,0.1-0.3,0.2-0.5,0.3
			c-0.2,0.1-0.3,0.2-0.4,0.4c-0.1,0.1-0.2,0.3-0.3,0.4c-0.1,0.2-0.2,0.3-0.3,0.5c-0.1,0.2-0.1,0.3-0.2,0.5c0,0.2-0.1,0.4-0.1,0.6
			s0,0.4,0.1,0.6c0,0.2,0.1,0.4,0.2,0.5c0.1,0.2,0.2,0.3,0.3,0.5c0.1,0.2,0.2,0.3,0.4,0.4c0.1,0.1,0.3,0.2,0.4,0.4
			c0.2,0.1,0.3,0.2,0.5,0.3c0.2,0.1,0.4,0.1,0.5,0.2c0.2,0,0.4,0.1,0.6,0.1c0.2,0,0.4,0,0.6-0.1c0.2,0,0.4-0.1,0.5-0.2
			c0.2-0.1,0.3-0.2,0.5-0.3c0.2-0.1,0.3-0.2,0.4-0.4c0.1-0.1,0.2-0.3,0.4-0.4c0.1-0.2,0.2-0.3,0.3-0.5c0.1-0.2,0.1-0.3,0.2-0.5
			c0-0.2,0.1-0.4,0.1-0.6S499.6,651.7,499.6,651.5z"/>
		<path d="M450.5,632.1c1.6,0,2.8-1.3,2.8-2.8c0-1.6-1.3-2.8-2.8-2.8h-22.8c-1.6,0-2.8,1.3-2.8,2.8V652c0,1.6,1.3,2.8,2.8,2.8h22.8
			c1.6,0,2.8-1.3,2.8-2.8s-1.3-2.8-2.8-2.8h-19.9v-17.1H450.5z"/>
		<path d="M506.1,649.2c-1.6,0-2.8,1.3-2.8,2.8v1l-2.7,2.7c-1.1,1.1-1.1,2.9,0,4c0.6,0.6,1.3,0.8,2,0.8s1.5-0.3,2-0.8l3.6-3.6
			c0.1-0.1,0.3-0.3,0.4-0.4c0-0.1,0.1-0.1,0.1-0.2c0.1-0.1,0.1-0.2,0.1-0.3c0-0.1,0.1-0.2,0.1-0.3c0-0.1,0.1-0.2,0.1-0.2
			c0-0.2,0.1-0.4,0.1-0.6V652C508.9,650.5,507.6,649.2,506.1,649.2z"/>
	</g>
</g>
<circle class="st0" cx="400" cy="400" r="400"/>
</svg>
