<?xml version="1.0" encoding="UTF-8"?>
<svg width="1016px" height="128px" viewBox="0 0 1016 128" version="1.1" xmlns="http://www.w3.org/2000/svg" xmlns:xlink="http://www.w3.org/1999/xlink">
    <!-- Generator: Sketch 55.2 (78181) - https://sketchapp.com -->
    <title>foxfox-dense-white</title>
    <desc>Created with Sketch.</desc>
    <g id="foxfox-dense-white" stroke="none" stroke-width="1" fill="none" fill-rule="evenodd">
        <g fill-rule="nonzero">
            <g id="b" transform="translate(153.536387, 4.000000)" fill="#000000">
                <path d="M160.004261,123.320803 C156.739971,123.320803 153.609378,122.024069 151.301177,119.715867 C148.992976,117.407666 147.696242,114.277073 147.696242,111.012783 L147.696242,12.5486272 C147.696242,9.28433742 148.992976,6.15374445 151.301177,3.84554302 C153.609378,1.5373416 156.739971,0.240607662 160.004261,0.240607662 L258.468423,0.240607662 C261.732713,0.240607662 264.863306,1.5373416 267.171507,3.84554302 C269.479709,6.15374445 270.776443,9.28433742 270.776443,12.5486272 L270.776443,111.012783 C270.776443,114.277073 269.479709,117.407666 267.171507,119.715867 C264.863306,122.024069 261.732713,123.320803 258.468423,123.320803 L160.004261,123.320803 Z M172.312281,98.7047637 L246.160404,98.7047637 L246.160404,24.8566467 L172.312281,24.8566467 L172.312281,98.7047637 Z" id="path115" transform="translate(209.236339, 61.780705) scale(-1, 1) rotate(-180.000000) translate(-209.236339, -61.780705) "></path>
                <path d="M414.871979,119.718137 C412.565627,122.024608 409.437471,123.32038 406.175712,123.32038 C402.913954,123.32038 399.785798,122.024608 397.479446,119.718137 L356.98193,79.2206216 L316.487489,119.718137 C311.670152,124.429674 303.958407,124.387204 299.193255,119.622895 C294.428104,114.858585 294.38427,107.146849 299.094956,102.328679 L339.589397,61.8311629 L299.091881,21.3336472 C295.927336,18.2386033 294.670236,13.681691 295.800312,9.40190488 C296.930388,5.12211872 300.273268,1.77982914 304.553254,0.650510191 C308.83324,-0.478808762 313.38993,0.779096679 316.484414,3.94418859 L356.975781,44.4417043 L397.476371,3.94418859 C399.778704,1.63251721 402.908505,0.335442756 406.1711,0.340856646 C411.144945,0.340675327 415.629196,3.33653346 417.533035,7.93158871 C419.436873,12.526644 418.385413,17.8160766 414.868904,21.3336472 L374.374463,61.8311629 L414.871979,102.328679 C419.67292,107.13107 419.67292,114.915746 414.871979,119.718137" id="path113" transform="translate(356.932584, 61.781808) scale(-1, 1) rotate(-180.000000) translate(-356.932584, -61.781808) "></path>
                <path d="M110.772176,98.4641561 C117.569707,98.4641561 123.080195,103.974644 123.080195,110.772176 C123.080195,117.569707 117.569707,123.080195 110.772176,123.080195 L12.3080195,123.080195 C5.51048803,123.080195 2.84217094e-14,117.569707 2.84217094e-14,110.772176 L2.84217094e-14,12.3080195 C2.84217094e-14,5.51048803 5.51048803,2.84217094e-14 12.3080195,2.84217094e-14 C19.105551,2.84217094e-14 24.616039,5.51048803 24.616039,12.3080195 L24.616039,49.232078 L110.772176,49.232078 C117.569707,49.232078 123.080195,54.7425661 123.080195,61.5400975 C123.080195,68.337629 117.569707,73.8481171 110.772176,73.8481171 L24.616039,73.8481171 L24.616039,98.4641561 L110.772176,98.4641561 Z" id="path111" transform="translate(61.540098, 61.540098) scale(-1, 1) rotate(-180.000000) translate(-61.540098, -61.540098) "></path>
                <path d="M603.092986,123.320803 C596.295454,123.320803 590.784966,117.810315 590.784966,111.012783 L590.784966,12.5486272 C590.784966,5.7510957 596.295454,0.240607662 603.092986,0.240607662 L701.557173,0.240607662 C708.354704,0.240607662 713.865192,5.7510957 713.865192,12.5486272 L713.865192,111.012783 C713.865192,117.810315 708.354704,123.320803 701.557173,123.320803 L603.092986,123.320803 Z M615.401005,98.7047637 L689.249153,98.7047637 L689.249153,24.8566467 L615.401005,24.8566467 L615.401005,98.7047637 Z" id="path115-8" transform="translate(652.325079, 61.780705) scale(-1, 1) rotate(-180.000000) translate(-652.325079, -61.780705) "></path>
                <path d="M857.960705,119.718477 C855.654354,122.025005 852.526199,123.320809 849.264442,123.320809 C846.002685,123.320809 842.87453,122.025005 840.568179,119.718477 L800.07068,79.2199621 L759.576224,119.718477 C754.758886,124.430112 747.04716,124.387633 742.282018,119.623213 C737.516875,114.858794 737.473033,107.146881 742.183698,102.32859 L782.678123,61.8300743 L742.180624,21.331559 C739.016069,18.2364411 737.758961,13.6794106 738.889034,9.3995115 C740.019108,5.11961242 743.361993,1.77723473 747.641984,0.647889396 C751.921975,-0.481455943 756.478669,0.776489445 759.57315,3.94167116 L800.064531,44.4401864 L840.565105,3.94167116 C842.867436,1.62994274 845.997236,0.332836279 849.25983,0.338250269 C854.233673,0.338069246 858.717921,3.33400135 860.621759,7.92916987 C862.525597,12.5243384 861.474137,17.8139014 857.957631,21.331559 L817.463206,61.8300743 L857.960705,102.32859 C862.761644,107.131099 862.761644,114.915968 857.960705,119.718477" id="path113-0" transform="translate(800.021309, 61.780708) scale(-1, 1) rotate(-180.000000) translate(-800.021309, -61.780708) "></path>
                <path d="M553.8609,98.7020119 C560.657357,98.7035316 566.166168,104.213575 566.166168,111.010031 C566.166168,117.806488 560.657357,123.316531 553.8609,123.318051 L455.396744,123.318051 C448.599213,123.318051 443.088725,117.807563 443.088725,111.010031 L443.088725,12.5458753 C443.090244,5.74941861 448.600287,0.240607662 455.396744,0.240607662 C462.193201,0.240607662 467.703244,5.74941861 467.704764,12.5458753 L467.704764,49.4699338 L553.8609,49.4699338 C560.657357,49.4714536 566.166168,54.9814965 566.166168,61.7779534 C566.166168,68.5744102 560.657357,74.0844531 553.8609,74.0859729 L467.704764,74.0859729 L467.704764,98.7020119 L553.8609,98.7020119 Z" id="path111-2" transform="translate(504.627446, 61.779329) scale(-1, 1) rotate(-180.000000) translate(-504.627446, -61.779329) "></path>
            </g>
            <g id="w" transform="translate(149.536387, 0.000000)" fill="#FFFFFF">
                <path d="M160.004261,123.320803 C156.739971,123.320803 153.609378,122.024069 151.301177,119.715867 C148.992976,117.407666 147.696242,114.277073 147.696242,111.012783 L147.696242,12.5486272 C147.696242,9.28433742 148.992976,6.15374445 151.301177,3.84554302 C153.609378,1.5373416 156.739971,0.240607662 160.004261,0.240607662 L258.468423,0.240607662 C261.732713,0.240607662 264.863306,1.5373416 267.171507,3.84554302 C269.479709,6.15374445 270.776443,9.28433742 270.776443,12.5486272 L270.776443,111.012783 C270.776443,114.277073 269.479709,117.407666 267.171507,119.715867 C264.863306,122.024069 261.732713,123.320803 258.468423,123.320803 L160.004261,123.320803 Z M172.312281,98.7047637 L246.160404,98.7047637 L246.160404,24.8566467 L172.312281,24.8566467 L172.312281,98.7047637 Z" id="path115" transform="translate(209.236339, 61.780705) scale(-1, 1) rotate(-180.000000) translate(-209.236339, -61.780705) "></path>
                <path d="M414.871979,119.718137 C412.565627,122.024608 409.437471,123.32038 406.175712,123.32038 C402.913954,123.32038 399.785798,122.024608 397.479446,119.718137 L356.98193,79.2206216 L316.487489,119.718137 C311.670152,124.429674 303.958407,124.387204 299.193255,119.622895 C294.428104,114.858585 294.38427,107.146849 299.094956,102.328679 L339.589397,61.8311629 L299.091881,21.3336472 C295.927336,18.2386033 294.670236,13.681691 295.800312,9.40190488 C296.930388,5.12211872 300.273268,1.77982914 304.553254,0.650510191 C308.83324,-0.478808762 313.38993,0.779096679 316.484414,3.94418859 L356.975781,44.4417043 L397.476371,3.94418859 C399.778704,1.63251721 402.908505,0.335442756 406.1711,0.340856646 C411.144945,0.340675327 415.629196,3.33653346 417.533035,7.93158871 C419.436873,12.526644 418.385413,17.8160766 414.868904,21.3336472 L374.374463,61.8311629 L414.871979,102.328679 C419.67292,107.13107 419.67292,114.915746 414.871979,119.718137" id="path113" transform="translate(356.932584, 61.781808) scale(-1, 1) rotate(-180.000000) translate(-356.932584, -61.781808) "></path>
                <path d="M110.772176,98.4641561 C117.569707,98.4641561 123.080195,103.974644 123.080195,110.772176 C123.080195,117.569707 117.569707,123.080195 110.772176,123.080195 L12.3080195,123.080195 C5.51048803,123.080195 2.84217094e-14,117.569707 2.84217094e-14,110.772176 L2.84217094e-14,12.3080195 C2.84217094e-14,5.51048803 5.51048803,2.84217094e-14 12.3080195,2.84217094e-14 C19.105551,2.84217094e-14 24.616039,5.51048803 24.616039,12.3080195 L24.616039,49.232078 L110.772176,49.232078 C117.569707,49.232078 123.080195,54.7425661 123.080195,61.5400975 C123.080195,68.337629 117.569707,73.8481171 110.772176,73.8481171 L24.616039,73.8481171 L24.616039,98.4641561 L110.772176,98.4641561 Z" id="path111" transform="translate(61.540098, 61.540098) scale(-1, 1) rotate(-180.000000) translate(-61.540098, -61.540098) "></path>
                <path d="M603.092986,123.320803 C596.295454,123.320803 590.784966,117.810315 590.784966,111.012783 L590.784966,12.5486272 C590.784966,5.7510957 596.295454,0.240607662 603.092986,0.240607662 L701.557173,0.240607662 C708.354704,0.240607662 713.865192,5.7510957 713.865192,12.5486272 L713.865192,111.012783 C713.865192,117.810315 708.354704,123.320803 701.557173,123.320803 L603.092986,123.320803 Z M615.401005,98.7047637 L689.249153,98.7047637 L689.249153,24.8566467 L615.401005,24.8566467 L615.401005,98.7047637 Z" id="path115-8" transform="translate(652.325079, 61.780705) scale(-1, 1) rotate(-180.000000) translate(-652.325079, -61.780705) "></path>
                <path d="M857.960705,119.718477 C855.654354,122.025005 852.526199,123.320809 849.264442,123.320809 C846.002685,123.320809 842.87453,122.025005 840.568179,119.718477 L800.07068,79.2199621 L759.576224,119.718477 C754.758886,124.430112 747.04716,124.387633 742.282018,119.623213 C737.516875,114.858794 737.473033,107.146881 742.183698,102.32859 L782.678123,61.8300743 L742.180624,21.331559 C739.016069,18.2364411 737.758961,13.6794106 738.889034,9.3995115 C740.019108,5.11961242 743.361993,1.77723473 747.641984,0.647889396 C751.921975,-0.481455943 756.478669,0.776489445 759.57315,3.94167116 L800.064531,44.4401864 L840.565105,3.94167116 C842.867436,1.62994274 845.997236,0.332836279 849.25983,0.338250269 C854.233673,0.338069246 858.717921,3.33400135 860.621759,7.92916987 C862.525597,12.5243384 861.474137,17.8139014 857.957631,21.331559 L817.463206,61.8300743 L857.960705,102.32859 C862.761644,107.131099 862.761644,114.915968 857.960705,119.718477" id="path113-0" transform="translate(800.021309, 61.780708) scale(-1, 1) rotate(-180.000000) translate(-800.021309, -61.780708) "></path>
                <path d="M553.8609,98.7020119 C560.657357,98.7035316 566.166168,104.213575 566.166168,111.010031 C566.166168,117.806488 560.657357,123.316531 553.8609,123.318051 L455.396744,123.318051 C448.599213,123.318051 443.088725,117.807563 443.088725,111.010031 L443.088725,12.5458753 C443.090244,5.74941861 448.600287,0.240607662 455.396744,0.240607662 C462.193201,0.240607662 467.703244,5.74941861 467.704764,12.5458753 L467.704764,49.4699338 L553.8609,49.4699338 C560.657357,49.4714536 566.166168,54.9814965 566.166168,61.7779534 C566.166168,68.5744102 560.657357,74.0844531 553.8609,74.0859729 L467.704764,74.0859729 L467.704764,98.7020119 L553.8609,98.7020119 Z" id="path111-2" transform="translate(504.627446, 61.779329) scale(-1, 1) rotate(-180.000000) translate(-504.627446, -61.779329) "></path>
            </g>
            <g id="b" transform="translate(4.000000, 4.000000)" fill="#000000">
                <path d="M58.6810657,-2.84217094e-14 L92.461175,117.803902 C93.3637733,120.952156 96.3599772,123.237179 99.5855392,123.237179 L129.040651,123.237179 L95.2605418,5.43356143 C94.3576583,2.28530796 91.3614544,-2.84217094e-14 88.1358924,-2.84217094e-14 L58.6810657,-2.84217094e-14 Z" id="path30" transform="translate(93.860858, 61.618589) scale(-1, 1) rotate(-180.000000) translate(-93.860858, -61.618589) "></path>
                <path d="M0,2.84217094e-14 L33.7801094,117.803902 C34.6824223,120.952156 37.6786262,123.237179 40.9044735,123.237179 L70.3595855,123.237179 L36.5797614,5.43356143 C35.6768779,2.28530796 32.6803887,2.84217094e-14 29.455112,2.84217094e-14 L0,2.84217094e-14 Z" id="path50" transform="translate(35.179793, 61.618589) scale(-1, 1) rotate(-180.000000) translate(-35.179793, -61.618589) "></path>
            </g>
            <g id="w" fill="#FFFFFF">
                <path d="M58.6810657,-2.84217094e-14 L92.461175,117.803902 C93.3637733,120.952156 96.3599772,123.237179 99.5855392,123.237179 L129.040651,123.237179 L95.2605418,5.43356143 C94.3576583,2.28530796 91.3614544,-2.84217094e-14 88.1358924,-2.84217094e-14 L58.6810657,-2.84217094e-14 Z" id="path30" transform="translate(93.860858, 61.618589) scale(-1, 1) rotate(-180.000000) translate(-93.860858, -61.618589) "></path>
                <path d="M0,2.84217094e-14 L33.7801094,117.803902 C34.6824223,120.952156 37.6786262,123.237179 40.9044735,123.237179 L70.3595855,123.237179 L36.5797614,5.43356143 C35.6768779,2.28530796 32.6803887,2.84217094e-14 29.455112,2.84217094e-14 L0,2.84217094e-14 Z" id="path50" transform="translate(35.179793, 61.618589) scale(-1, 1) rotate(-180.000000) translate(-35.179793, -61.618589) "></path>
            </g>
        </g>
    </g>
</svg>