<?xml version="1.0"?>
<svg width="381" height="40" 
    xmlns="http://www.w3.org/2000/svg" 
    xmlns:svg="http://www.w3.org/2000/svg">
    <metadata id="metadata8">image/svg+xml</metadata>
    <defs>
        <clipPath clipPathUnits="userSpaceOnUse" id="clipPath18">
            <path d="m0,800l800,0l0,-800l-800,0l0,800z" id="path16"/>
        </clipPath>
        <clipPath clipPathUnits="userSpaceOnUse" id="clipPath66">
            <path d="m-173.828094,1455.5l800,0l0,-800l-800,0l0,800z" id="path64"/>
        </clipPath>
    </defs>
    <g class="layer">
        <title>Layer 1</title>
        <g id="g10" transform="matrix(1 0 0 -1 0 800)">
            <g id="g60">
                <g clip-path="url(#clipPath66)" id="g62">
                    <path d="m99.468906,768l-24,0l0,24l24,0l0,-24zm4,32l-32,0c-2.209,0 -4,-1.791 -4,-4l0,-32c0,-2.209 1.791,-4 4,-4l32,0c2.209,0 4,1.791 4,4l0,32c0,2.209 -1.791,4 -4,4" fill="#000000" fill-rule="nonzero" id="path68"/>
                    <g id="g70" transform="translate(347.594 143.328)">
                        <path d="m-173.828094,655.5c-1.562,1.562 -4.095,1.562 -5.657,0l-13.172,-13.172l-13.171,13.172c-1.563,1.562 -4.095,1.562 -5.657,0c-1.562,-1.562 -1.562,-4.095 0,-5.656l13.172,-13.172l-13.172,-13.172c-1.562,-1.562 -1.562,-4.095 0,-5.656c0.781,-0.782 1.804,-1.172 2.828,-1.172c1.024,0 2.048,0.39 2.829,1.172l13.171,13.172l13.172,-13.172c0.781,-0.782 1.804,-1.172 2.828,-1.172c1.024,0 2.048,0.39 2.829,1.172c1.562,1.561 1.562,4.094 0,5.656l-13.172,13.172l13.172,13.172c1.562,1.561 1.562,4.094 0,5.656" fill="#000000" fill-rule="nonzero" id="path72"/>
                    </g>
                    <g id="g74" transform="translate(209.828 136.5)">
                        <path d="m-173.828094,655.5c2.209,0 4,1.791 4,4c0,2.209 -1.791,4 -4,4l-32,0c-2.209,0 -4,-1.791 -4,-4l0,-32c0,-2.209 1.791,-4 4,-4c2.209,0 4,1.791 4,4l0,12l28,0c2.209,0 4,1.791 4,4c0,2.209 -1.791,4 -4,4l-28,0l0,8l28,0z" fill="#000000" fill-rule="nonzero" id="path76"/>
                    </g>
                    <path d="m305.171906,768l-24,0l0,24l24,0l0,-24zm4,32l-32,0c-2.209,0 -4,-1.791 -4,-4l0,-32c0,-2.209 1.791,-4 4,-4l32,0c2.209,0 4,1.791 4,4l0,32c0,2.209 -1.791,4 -4,4" fill="#000000" fill-rule="nonzero" id="path78"/>
                    <g id="g80" transform="translate(553.297 143.328)">
                        <path d="m-173.828094,655.5c-1.562,1.562 -4.095,1.562 -5.657,0l-13.171,-13.172l-13.172,13.172c-1.563,1.562 -4.095,1.562 -5.657,0c-1.562,-1.562 -1.562,-4.095 0,-5.656l13.172,-13.172l-13.172,-13.172c-1.562,-1.562 -1.562,-4.095 0,-5.656c0.781,-0.782 1.804,-1.172 2.829,-1.172c1.023,0 2.047,0.39 2.828,1.172l13.172,13.172l13.171,-13.172c0.781,-0.782 1.804,-1.172 2.829,-1.172c1.023,0 2.047,0.39 2.828,1.172c1.562,1.561 1.562,4.094 0,5.656l-13.172,13.172l13.172,13.172c1.562,1.561 1.562,4.094 0,5.656" fill="#000000" fill-rule="nonzero" id="path82"/>
                    </g>
                    <g id="g84" transform="translate(415.531 136.5)">
                        <path d="m-173.828094,655.5c2.209,0 4,1.791 4,4c0,2.209 -1.791,4 -4,4l-32,0c-2.209,0 -4,-1.791 -4,-4l0,-32c0,-2.209 1.791,-4 4,-4c2.208,0 4,1.791 4,4l0,12l28,0c2.209,0 4,1.791 4,4c0,2.209 -1.791,4 -4,4l-28,0l0,8l28,0z" fill="#000000" fill-rule="nonzero" id="path86"/>
                    </g>
                </g>
            </g>
        </g>
    </g>
</svg>