<?xml version="1.0" encoding="UTF-8"?>
<svg width="354px" height="128px" viewBox="0 0 354 128" version="1.1" xmlns="http://www.w3.org/2000/svg" xmlns:xlink="http://www.w3.org/1999/xlink">
    <!-- Generator: Sketch 55.2 (78181) - https://sketchapp.com -->
    <title>foxfox-2line-black-flat</title>
    <desc>Created with Sketch.</desc>
    <g id="foxfox-2line-black-flat" stroke="none" stroke-width="1" fill="none" fill-rule="evenodd">
        <g fill="#000000" fill-rule="nonzero">
            <g id="ff" transform="translate(154.838710, 0.000000)">
                <g id="fox-copy">
                    <path d="M75.9741935,57.8064516 C74.4410711,57.8064516 72.9707414,57.1974212 71.8866601,56.1133399 C70.8025788,55.0292586 70.1935484,53.5589289 70.1935484,52.0258065 L70.1935484,5.78064516 C70.1935484,4.24752273 70.8025788,2.77719299 71.8866601,1.69311173 C72.9707414,0.609030459 74.4410711,-2.84217094e-14 75.9741935,-2.84217094e-14 L122.219358,-2.84217094e-14 C123.75248,-2.84217094e-14 125.22281,0.609030459 126.306891,1.69311173 C127.390972,2.77719299 128.000003,4.24752273 128.000003,5.78064516 L128.000003,52.0258065 C128.000003,53.5589289 127.390972,55.0292586 126.306891,56.1133399 C125.22281,57.1974212 123.75248,57.8064516 122.219358,57.8064516 L75.9741935,57.8064516 Z M81.7548387,46.2451613 L116.438713,46.2451613 L116.438713,11.5612903 L81.7548387,11.5612903 L81.7548387,46.2451613 Z" id="path115" transform="translate(99.096774, 28.903226) scale(-1, 1) rotate(-180.000000) translate(-99.096774, -28.903226) "></path>
                    <path d="M196.502423,56.1145625 C195.419211,57.1978579 193.950025,57.8064516 192.418092,57.8064516 C190.886159,57.8064516 189.416973,57.1978579 188.333761,56.1145625 L169.313499,37.093828 L150.294681,56.1145625 C148.032146,58.327461 144.410211,58.3075139 142.172186,56.0698293 C139.934162,53.8321448 139.913575,50.2101227 142.126018,47.9471411 L161.144836,28.9264066 L142.124574,9.90567205 C140.638298,8.45200244 140.047883,6.31172747 140.57864,4.30161216 C141.109396,2.29149685 142.67943,0.721701719 144.689589,0.19128706 C146.699749,-0.339127599 148.839866,0.251681122 150.293237,1.73825066 L169.310611,20.7589852 L188.332317,1.73825066 C189.413642,0.652512754 190.883599,0.0433072658 192.415926,0.0458500432 C194.751967,0.0457648821 196.858062,1.45284927 197.752228,3.61103909 C198.646394,5.76922891 198.15256,8.25355153 196.500979,9.90567205 L177.482161,28.9264066 L196.502423,47.9471411 C198.757257,50.2027118 198.757257,53.8589919 196.502423,56.1145625" id="path113" transform="translate(169.290323, 28.903226) scale(-1, 1) rotate(-180.000000) translate(-169.290323, -28.903226) "></path>
                    <path d="M52.0258065,46.2451613 C55.2183686,46.2451613 57.8064516,48.8332443 57.8064516,52.0258065 C57.8064516,55.2183686 55.2183686,57.8064516 52.0258065,57.8064516 L5.78064516,57.8064516 C2.58808299,57.8064516 0,55.2183686 0,52.0258065 L0,5.78064516 C0,2.58808299 2.58808299,-2.84217094e-14 5.78064516,-2.84217094e-14 C8.97320733,-2.84217094e-14 11.5612903,2.58808299 11.5612903,5.78064516 L11.5612903,23.1225806 L52.0258065,23.1225806 C55.2183686,23.1225806 57.8064516,25.7106636 57.8064516,28.9032258 C57.8064516,32.095788 55.2183686,34.683871 52.0258065,34.683871 L11.5612903,34.683871 L11.5612903,46.2451613 L52.0258065,46.2451613 Z" id="path111" transform="translate(28.903226, 28.903226) scale(-1, 1) rotate(-180.000000) translate(-28.903226, -28.903226) "></path>
                </g>
                <g id="fox-copy-2" transform="translate(0.000000, 70.193548)">
                    <path d="M75.9741935,57.8064516 C74.4410711,57.8064516 72.9707414,57.1974212 71.8866601,56.1133399 C70.8025788,55.0292586 70.1935484,53.5589289 70.1935484,52.0258065 L70.1935484,5.78064516 C70.1935484,4.24752273 70.8025788,2.77719299 71.8866601,1.69311173 C72.9707414,0.609030459 74.4410711,0 75.9741935,0 L122.219358,0 C123.75248,0 125.22281,0.609030459 126.306891,1.69311173 C127.390972,2.77719299 128.000003,4.24752273 128.000003,5.78064516 L128.000003,52.0258065 C128.000003,53.5589289 127.390972,55.0292586 126.306891,56.1133399 C125.22281,57.1974212 123.75248,57.8064516 122.219358,57.8064516 L75.9741935,57.8064516 Z M81.7548387,46.2451613 L116.438713,46.2451613 L116.438713,11.5612903 L81.7548387,11.5612903 L81.7548387,46.2451613 Z" id="path115" transform="translate(99.096774, 28.903226) scale(-1, 1) rotate(-180.000000) translate(-99.096774, -28.903226) "></path>
                    <path d="M196.502423,56.1145625 C195.419211,57.1978579 193.950025,57.8064516 192.418092,57.8064516 C190.886159,57.8064516 189.416973,57.1978579 188.333761,56.1145625 L169.313499,37.093828 L150.294681,56.1145625 C148.032146,58.327461 144.410211,58.3075139 142.172186,56.0698293 C139.934162,53.8321448 139.913575,50.2101227 142.126018,47.9471411 L161.144836,28.9264066 L142.124574,9.90567205 C140.638298,8.45200244 140.047883,6.31172747 140.57864,4.30161216 C141.109396,2.29149685 142.67943,0.721701719 144.689589,0.19128706 C146.699749,-0.339127599 148.839866,0.251681122 150.293237,1.73825066 L169.310611,20.7589852 L188.332317,1.73825066 C189.413642,0.652512754 190.883599,0.0433072658 192.415926,0.0458500432 C194.751967,0.0457648821 196.858062,1.45284927 197.752228,3.61103909 C198.646394,5.76922891 198.15256,8.25355153 196.500979,9.90567205 L177.482161,28.9264066 L196.502423,47.9471411 C198.757257,50.2027118 198.757257,53.8589919 196.502423,56.1145625" id="path113" transform="translate(169.290323, 28.903226) scale(-1, 1) rotate(-180.000000) translate(-169.290323, -28.903226) "></path>
                    <path d="M52.0258065,46.2451613 C55.2183686,46.2451613 57.8064516,48.8332443 57.8064516,52.0258065 C57.8064516,55.2183686 55.2183686,57.8064516 52.0258065,57.8064516 L5.78064516,57.8064516 C2.58808299,57.8064516 0,55.2183686 0,52.0258065 L0,5.78064516 C0,2.58808299 2.58808299,0 5.78064516,0 C8.97320733,0 11.5612903,2.58808299 11.5612903,5.78064516 L11.5612903,23.1225806 L52.0258065,23.1225806 C55.2183686,23.1225806 57.8064516,25.7106636 57.8064516,28.9032258 C57.8064516,32.095788 55.2183686,34.683871 52.0258065,34.683871 L11.5612903,34.683871 L11.5612903,46.2451613 L52.0258065,46.2451613 Z" id="path111" transform="translate(28.903226, 28.903226) scale(-1, 1) rotate(-180.000000) translate(-28.903226, -28.903226) "></path>
                </g>
            </g>
            <g id="w" transform="translate(0.000000, 0.000000)">
                <path d="M60.5740033,-2.84217094e-14 L95.4437936,121.604028 C96.3755079,124.853838 99.4683635,127.212571 102.797976,127.212571 L133.203253,127.212571 L98.3334625,5.60883761 C97.4014537,2.35902757 94.3085981,-2.84217094e-14 90.9789857,-2.84217094e-14 L60.5740033,-2.84217094e-14 Z" id="path30" transform="translate(96.888628, 63.606286) scale(-1, 1) rotate(-180.000000) translate(-96.888628, -63.606286) "></path>
                <path d="M0,2.84217094e-14 L34.8697903,121.604028 C35.8012102,124.853838 38.8940658,127.212571 42.2239726,127.212571 L72.6292496,127.212571 L37.7597537,5.60883761 C36.8277449,2.35902757 33.7345948,2.84217094e-14 30.4052769,2.84217094e-14 L0,2.84217094e-14 Z" id="path50" transform="translate(36.314625, 63.606286) scale(-1, 1) rotate(-180.000000) translate(-36.314625, -63.606286) "></path>
            </g>
        </g>
    </g>
</svg>